<?xml version="1.0" encoding="UTF-8" standalone="no"?>
<!DOCTYPE svg PUBLIC "-//W3C//DTD SVG 1.1//EN"
 "http://www.w3.org/Graphics/SVG/1.1/DTD/svg11.dtd">
<!-- Generated by graphviz version 2.27.20110109.0545 (20110109.0545)
 -->
<!-- Title: name Pages: 1 -->
<svg width="506pt" height="358pt"
 viewBox="0.00 0.00 506.00 358.00" xmlns="http://www.w3.org/2000/svg" xmlns:xlink="http://www.w3.org/1999/xlink">
<g id="graph1" class="graph" transform="scale(1 1) rotate(0) translate(4 354)">
<title>name</title>
<polygon fill="white" stroke="white" points="-4,5 -4,-354 503,-354 503,5 -4,5"/>
<!-- praktomat_accounts_models_User -->
<g id="node1" class="node"><title>praktomat_accounts_models_User</title>
<polygon fill="palegoldenrod" stroke="palegoldenrod" points="167,-112.5 167,-345.5 319,-345.5 319,-112.5 167,-112.5"/>
<polygon fill="#698b22" stroke="#698b22" points="167,-328 167,-345 319,-345 319,-328 167,-328"/>
<text text-anchor="start" x="233.5" y="-334.633" font-family="Helvetica Bold" font-size="8.00" fill="white">User</text>
<text text-anchor="start" x="169" y="-320.133" font-family="Helvetica Bold" font-size="8.00" fill="#7b7b7b">id</text>
<text text-anchor="start" x="244" y="-320.133" font-family="Helvetica Bold" font-size="8.00" fill="#7b7b7b">AutoField</text>
<text text-anchor="start" x="169" y="-308.133" font-family="Helvetica Bold" font-size="8.00">username</text>
<text text-anchor="start" x="244" y="-308.133" font-family="Helvetica Bold" font-size="8.00">CharField</text>
<text text-anchor="start" x="169" y="-296.133" font-family="Helvetica Bold" font-size="8.00" fill="#7b7b7b">first_name</text>
<text text-anchor="start" x="244" y="-296.133" font-family="Helvetica Bold" font-size="8.00" fill="#7b7b7b">CharField</text>
<text text-anchor="start" x="169" y="-284.133" font-family="Helvetica Bold" font-size="8.00" fill="#7b7b7b">last_name</text>
<text text-anchor="start" x="244" y="-284.133" font-family="Helvetica Bold" font-size="8.00" fill="#7b7b7b">CharField</text>
<text text-anchor="start" x="169" y="-272.133" font-family="Helvetica Bold" font-size="8.00" fill="#7b7b7b">email</text>
<text text-anchor="start" x="244" y="-272.133" font-family="Helvetica Bold" font-size="8.00" fill="#7b7b7b">EmailField</text>
<text text-anchor="start" x="169" y="-260.133" font-family="Helvetica Bold" font-size="8.00">password</text>
<text text-anchor="start" x="244" y="-260.133" font-family="Helvetica Bold" font-size="8.00">CharField</text>
<text text-anchor="start" x="169" y="-248.133" font-family="Helvetica Bold" font-size="8.00" fill="#7b7b7b">is_staff</text>
<text text-anchor="start" x="244" y="-248.133" font-family="Helvetica Bold" font-size="8.00" fill="#7b7b7b">BooleanField</text>
<text text-anchor="start" x="169" y="-236.133" font-family="Helvetica Bold" font-size="8.00" fill="#7b7b7b">is_active</text>
<text text-anchor="start" x="244" y="-236.133" font-family="Helvetica Bold" font-size="8.00" fill="#7b7b7b">BooleanField</text>
<text text-anchor="start" x="169" y="-224.133" font-family="Helvetica Bold" font-size="8.00" fill="#7b7b7b">is_superuser</text>
<text text-anchor="start" x="244" y="-224.133" font-family="Helvetica Bold" font-size="8.00" fill="#7b7b7b">BooleanField</text>
<text text-anchor="start" x="169" y="-212.133" font-family="Helvetica Bold" font-size="8.00">last_login</text>
<text text-anchor="start" x="244" y="-212.133" font-family="Helvetica Bold" font-size="8.00">DateTimeField</text>
<text text-anchor="start" x="169" y="-200.133" font-family="Helvetica Bold" font-size="8.00">date_joined</text>
<text text-anchor="start" x="244" y="-200.133" font-family="Helvetica Bold" font-size="8.00">DateTimeField</text>
<text text-anchor="start" x="169" y="-188.133" font-family="Helvetica Bold" font-size="8.00">user_ptr</text>
<text text-anchor="start" x="244" y="-188.133" font-family="Helvetica Bold" font-size="8.00">OneToOneField</text>
<text text-anchor="start" x="169" y="-176.133" font-family="Helvetica Bold" font-size="8.00" fill="#7b7b7b">tutorial</text>
<text text-anchor="start" x="244" y="-176.133" font-family="Helvetica Bold" font-size="8.00" fill="#7b7b7b">ForeignKey</text>
<text text-anchor="start" x="169" y="-164.133" font-family="Helvetica Bold" font-size="8.00">mat_number</text>
<text text-anchor="start" x="244" y="-164.133" font-family="Helvetica Bold" font-size="8.00">IntegerField</text>
<text text-anchor="start" x="169" y="-152.133" font-family="Helvetica Bold" font-size="8.00" fill="#7b7b7b">final_grade</text>
<text text-anchor="start" x="244" y="-152.133" font-family="Helvetica Bold" font-size="8.00" fill="#7b7b7b">CharField</text>
<text text-anchor="start" x="169" y="-140.133" font-family="Helvetica Bold" font-size="8.00">activation_key</text>
<text text-anchor="start" x="244" y="-140.133" font-family="Helvetica Bold" font-size="8.00">CharField</text>
<text text-anchor="start" x="169" y="-128.133" font-family="Helvetica Bold" font-size="8.00" fill="#7b7b7b">groups</text>
<text text-anchor="start" x="244" y="-128.133" font-family="Helvetica Bold" font-size="8.00" fill="#7b7b7b">ManyToManyField</text>
<text text-anchor="start" x="169" y="-116.133" font-family="Helvetica Bold" font-size="8.00" fill="#7b7b7b">user_permissions</text>
<text text-anchor="start" x="244" y="-116.133" font-family="Helvetica Bold" font-size="8.00" fill="#7b7b7b">ManyToManyField</text>
</g>
<!-- praktomat_accounts_models_Tutorial -->
<g id="node2" class="node"><title>praktomat_accounts_models_Tutorial</title>
<polygon fill="palegoldenrod" stroke="palegoldenrod" points="7.5,-4.5 7.5,-57.5 134.5,-57.5 134.5,-4.5 7.5,-4.5"/>
<polygon fill="#698b22" stroke="#698b22" points="8,-40 8,-57 135,-57 135,-40 8,-40"/>
<text text-anchor="start" x="51.5" y="-46.6333" font-family="Helvetica Bold" font-size="8.00" fill="white">Tutorial</text>
<text text-anchor="start" x="10" y="-32.1333" font-family="Helvetica Bold" font-size="8.00" fill="#7b7b7b">id</text>
<text text-anchor="start" x="47" y="-32.1333" font-family="Helvetica Bold" font-size="8.00" fill="#7b7b7b">AutoField</text>
<text text-anchor="start" x="10" y="-20.1333" font-family="Helvetica Bold" font-size="8.00" fill="#7b7b7b">name</text>
<text text-anchor="start" x="47" y="-20.1333" font-family="Helvetica Bold" font-size="8.00" fill="#7b7b7b">CharField</text>
<text text-anchor="start" x="10" y="-8.13333" font-family="Helvetica Bold" font-size="8.00">tutors</text>
<text text-anchor="start" x="47" y="-8.13333" font-family="Helvetica Bold" font-size="8.00">ManyToManyField</text>
</g>
<!-- praktomat_accounts_models_User&#45;&gt;praktomat_accounts_models_Tutorial -->
<g id="edge2" class="edge"><title>praktomat_accounts_models_User&#45;&gt;praktomat_accounts_models_Tutorial</title>
<path fill="none" stroke="black" d="M158.98,-151.42C140.2,-132.22 121.1,-111.08 105,-90 100.41,-83.993 95.995,-77.306 91.949,-70.654"/>
<polygon fill="black" stroke="black" points="94.7593,-68.5272 86.682,-61.671 88.7207,-72.0678 94.7593,-68.5272"/>
<text text-anchor="middle" x="121.5" y="-82.8" font-family="Helvetica,sans-Serif" font-size="8.00">tutorial</text>
</g>
<!-- django_contrib_auth_models_User -->
<g id="node4" class="node"><title>django_contrib_auth_models_User</title>
<text text-anchor="middle" x="243" y="-28.8" font-family="Helvetica,sans-Serif" font-size="8.00">django_contrib_auth_models_User</text>
</g>
<!-- praktomat_accounts_models_User&#45;&gt;django_contrib_auth_models_User -->
<g id="edge4" class="edge"><title>praktomat_accounts_models_User&#45;&gt;django_contrib_auth_models_User</title>
<path fill="none" stroke="black" d="M243,-108.4C243,-85.148 243,-63.564 243,-49.129"/>
<text text-anchor="middle" x="261.5" y="-82.8" font-family="Helvetica,sans-Serif" font-size="8.00">user_ptr</text>
</g>
<!-- django_contrib_auth_models_Group -->
<g id="node6" class="node"><title>django_contrib_auth_models_Group</title>
<polygon fill="palegoldenrod" stroke="palegoldenrod" points="351.5,-22.5 351.5,-39.5 392.5,-39.5 392.5,-22.5 351.5,-22.5"/>
<polygon fill="#698b22" stroke="#698b22" points="352,-22 352,-39 393,-39 393,-22 352,-22"/>
<text text-anchor="start" x="357" y="-28.6333" font-family="Helvetica Bold" font-size="8.00" fill="white">Group</text>
</g>
<!-- praktomat_accounts_models_User&#45;&gt;django_contrib_auth_models_Group -->
<g id="edge6" class="edge"><title>praktomat_accounts_models_User&#45;&gt;django_contrib_auth_models_Group</title>
<path fill="none" stroke="black" d="M321.57,-108.4C334,-89.326 345.7,-71.374 354.69,-57.571"/>
<polygon fill="black" stroke="black" points="357.664,-59.4183 360.19,-49.129 351.799,-55.5971 357.664,-59.4183"/>
<text text-anchor="middle" x="352.5" y="-82.8" font-family="Helvetica,sans-Serif" font-size="8.00">groups</text>
</g>
<!-- django_contrib_auth_models_Permission -->
<g id="node8" class="node"><title>django_contrib_auth_models_Permission</title>
<polygon fill="palegoldenrod" stroke="palegoldenrod" points="425.5,-22.5 425.5,-39.5 490.5,-39.5 490.5,-22.5 425.5,-22.5"/>
<polygon fill="#698b22" stroke="#698b22" points="426,-22 426,-39 491,-39 491,-22 426,-22"/>
<text text-anchor="start" x="430.5" y="-28.6333" font-family="Helvetica Bold" font-size="8.00" fill="white">Permission</text>
</g>
<!-- praktomat_accounts_models_User&#45;&gt;django_contrib_auth_models_Permission -->
<g id="edge8" class="edge"><title>praktomat_accounts_models_User&#45;&gt;django_contrib_auth_models_Permission</title>
<path fill="none" stroke="black" d="M327.05,-151.6C363.76,-117.78 404.32,-80.437 430.42,-56.396"/>
<polygon fill="black" stroke="black" points="433.054,-58.7283 438.04,-49.38 428.313,-53.5787 433.054,-58.7283"/>
<text text-anchor="middle" x="439" y="-82.8" font-family="Helvetica,sans-Serif" font-size="8.00">user_permissions</text>
</g>
<!-- praktomat_accounts_models_Tutorial&#45;&gt;praktomat_accounts_models_User -->
<g id="edge10" class="edge"><title>praktomat_accounts_models_Tutorial&#45;&gt;praktomat_accounts_models_User</title>
<path fill="none" stroke="black" d="M116.97,-61.516C124.35,-67.268 131.64,-73.524 138,-80 144.35,-86.465 150.6,-93.348 156.68,-100.48"/>
<polygon fill="black" stroke="black" points="154.114,-102.868 163.21,-108.3 159.487,-98.3808 154.114,-102.868"/>
<text text-anchor="middle" x="159" y="-82.8" font-family="Helvetica,sans-Serif" font-size="8.00">tutors</text>
</g>
</g>
</svg>
