<?xml version="1.0" encoding="UTF-8" standalone="no"?>
<!DOCTYPE svg PUBLIC "-//W3C//DTD SVG 1.1//EN"
 "http://www.w3.org/Graphics/SVG/1.1/DTD/svg11.dtd">
<!-- Generated by graphviz version 2.27.20110109.0545 (20110109.0545)
 -->
<!-- Title: name Pages: 1 -->
<svg width="506pt" height="358pt"
 viewBox="0.00 0.00 506.00 358.00" xmlns="http://www.w3.org/2000/svg" xmlns:xlink="http://www.w3.org/1999/xlink">
<g id="graph1" class="graph" transform="scale(1 1) rotate(0) translate(4 354)">
<title>name</title>
<polygon fill="white" stroke="white" points="-4,5 -4,-354 503,-354 503,5 -4,5"/>
<!-- praktomat_accounts_models_User -->
<g id="node1" class="node"><title>praktomat_accounts_models_User</title>
<polygon fill="palegoldenrod" stroke="palegoldenrod" points="235,-112.5 235,-345.5 387,-345.5 387,-112.5 235,-112.5"/>
<polygon fill="#698b22" stroke="#698b22" points="235,-328 235,-345 387,-345 387,-328 235,-328"/>
<text text-anchor="start" x="301.5" y="-334.633" font-family="Helvetica Bold" font-size="8.00" fill="white">User</text>
<text text-anchor="start" x="237" y="-320.133" font-family="Helvetica Bold" font-size="8.00" fill="#7b7b7b">id</text>
<text text-anchor="start" x="312" y="-320.133" font-family="Helvetica Bold" font-size="8.00" fill="#7b7b7b">AutoField</text>
<text text-anchor="start" x="237" y="-308.133" font-family="Helvetica Bold" font-size="8.00">username</text>
<text text-anchor="start" x="312" y="-308.133" font-family="Helvetica Bold" font-size="8.00">CharField</text>
<text text-anchor="start" x="237" y="-296.133" font-family="Helvetica Bold" font-size="8.00" fill="#7b7b7b">first_name</text>
<text text-anchor="start" x="312" y="-296.133" font-family="Helvetica Bold" font-size="8.00" fill="#7b7b7b">CharField</text>
<text text-anchor="start" x="237" y="-284.133" font-family="Helvetica Bold" font-size="8.00" fill="#7b7b7b">last_name</text>
<text text-anchor="start" x="312" y="-284.133" font-family="Helvetica Bold" font-size="8.00" fill="#7b7b7b">CharField</text>
<text text-anchor="start" x="237" y="-272.133" font-family="Helvetica Bold" font-size="8.00" fill="#7b7b7b">email</text>
<text text-anchor="start" x="312" y="-272.133" font-family="Helvetica Bold" font-size="8.00" fill="#7b7b7b">EmailField</text>
<text text-anchor="start" x="237" y="-260.133" font-family="Helvetica Bold" font-size="8.00">password</text>
<text text-anchor="start" x="312" y="-260.133" font-family="Helvetica Bold" font-size="8.00">CharField</text>
<text text-anchor="start" x="237" y="-248.133" font-family="Helvetica Bold" font-size="8.00" fill="#7b7b7b">is_staff</text>
<text text-anchor="start" x="312" y="-248.133" font-family="Helvetica Bold" font-size="8.00" fill="#7b7b7b">BooleanField</text>
<text text-anchor="start" x="237" y="-236.133" font-family="Helvetica Bold" font-size="8.00" fill="#7b7b7b">is_active</text>
<text text-anchor="start" x="312" y="-236.133" font-family="Helvetica Bold" font-size="8.00" fill="#7b7b7b">BooleanField</text>
<text text-anchor="start" x="237" y="-224.133" font-family="Helvetica Bold" font-size="8.00" fill="#7b7b7b">is_superuser</text>
<text text-anchor="start" x="312" y="-224.133" font-family="Helvetica Bold" font-size="8.00" fill="#7b7b7b">BooleanField</text>
<text text-anchor="start" x="237" y="-212.133" font-family="Helvetica Bold" font-size="8.00">last_login</text>
<text text-anchor="start" x="312" y="-212.133" font-family="Helvetica Bold" font-size="8.00">DateTimeField</text>
<text text-anchor="start" x="237" y="-200.133" font-family="Helvetica Bold" font-size="8.00">date_joined</text>
<text text-anchor="start" x="312" y="-200.133" font-family="Helvetica Bold" font-size="8.00">DateTimeField</text>
<text text-anchor="start" x="237" y="-188.133" font-family="Helvetica Bold" font-size="8.00">user_ptr</text>
<text text-anchor="start" x="312" y="-188.133" font-family="Helvetica Bold" font-size="8.00">OneToOneField</text>
<text text-anchor="start" x="237" y="-176.133" font-family="Helvetica Bold" font-size="8.00" fill="#7b7b7b">tutorial</text>
<text text-anchor="start" x="312" y="-176.133" font-family="Helvetica Bold" font-size="8.00" fill="#7b7b7b">ForeignKey</text>
<text text-anchor="start" x="237" y="-164.133" font-family="Helvetica Bold" font-size="8.00">mat_number</text>
<text text-anchor="start" x="312" y="-164.133" font-family="Helvetica Bold" font-size="8.00">IntegerField</text>
<text text-anchor="start" x="237" y="-152.133" font-family="Helvetica Bold" font-size="8.00" fill="#7b7b7b">final_grade</text>
<text text-anchor="start" x="312" y="-152.133" font-family="Helvetica Bold" font-size="8.00" fill="#7b7b7b">CharField</text>
<text text-anchor="start" x="237" y="-140.133" font-family="Helvetica Bold" font-size="8.00">activation_key</text>
<text text-anchor="start" x="312" y="-140.133" font-family="Helvetica Bold" font-size="8.00">CharField</text>
<text text-anchor="start" x="237" y="-128.133" font-family="Helvetica Bold" font-size="8.00" fill="#7b7b7b">groups</text>
<text text-anchor="start" x="312" y="-128.133" font-family="Helvetica Bold" font-size="8.00" fill="#7b7b7b">ManyToManyField</text>
<text text-anchor="start" x="237" y="-116.133" font-family="Helvetica Bold" font-size="8.00" fill="#7b7b7b">user_permissions</text>
<text text-anchor="start" x="312" y="-116.133" font-family="Helvetica Bold" font-size="8.00" fill="#7b7b7b">ManyToManyField</text>
</g>
<!-- django_contrib_auth_models_User -->
<g id="node2" class="node"><title>django_contrib_auth_models_User</title>
<text text-anchor="middle" x="83" y="-28.8" font-family="Helvetica,sans-Serif" font-size="8.00">django_contrib_auth_models_User</text>
</g>
<!-- praktomat_accounts_models_User&#45;&gt;django_contrib_auth_models_User -->
<g id="edge2" class="edge"><title>praktomat_accounts_models_User&#45;&gt;django_contrib_auth_models_User</title>
<path fill="none" stroke="black" d="M226.75,-155.83C182.35,-117.28 131.48,-73.1 103.73,-49.004"/>
<text text-anchor="middle" x="169.5" y="-82.8" font-family="Helvetica,sans-Serif" font-size="8.00">user_ptr</text>
</g>
<!-- praktomat_accounts_models_Tutorial -->
<g id="node4" class="node"><title>praktomat_accounts_models_Tutorial</title>
<polygon fill="palegoldenrod" stroke="palegoldenrod" points="191.5,-4.5 191.5,-57.5 318.5,-57.5 318.5,-4.5 191.5,-4.5"/>
<polygon fill="#698b22" stroke="#698b22" points="192,-40 192,-57 319,-57 319,-40 192,-40"/>
<text text-anchor="start" x="235.5" y="-46.6333" font-family="Helvetica Bold" font-size="8.00" fill="white">Tutorial</text>
<text text-anchor="start" x="194" y="-32.1333" font-family="Helvetica Bold" font-size="8.00" fill="#7b7b7b">id</text>
<text text-anchor="start" x="231" y="-32.1333" font-family="Helvetica Bold" font-size="8.00" fill="#7b7b7b">AutoField</text>
<text text-anchor="start" x="194" y="-20.1333" font-family="Helvetica Bold" font-size="8.00" fill="#7b7b7b">name</text>
<text text-anchor="start" x="231" y="-20.1333" font-family="Helvetica Bold" font-size="8.00" fill="#7b7b7b">CharField</text>
<text text-anchor="start" x="194" y="-8.13333" font-family="Helvetica Bold" font-size="8.00">tutors</text>
<text text-anchor="start" x="231" y="-8.13333" font-family="Helvetica Bold" font-size="8.00">ManyToManyField</text>
</g>
<!-- praktomat_accounts_models_User&#45;&gt;praktomat_accounts_models_Tutorial -->
<g id="edge4" class="edge"><title>praktomat_accounts_models_User&#45;&gt;praktomat_accounts_models_Tutorial</title>
<path fill="none" stroke="black" d="M260.36,-108.49C258.69,-102.29 257.22,-96.108 256,-90 254.83,-84.143 254.14,-77.894 253.78,-71.735"/>
<polygon fill="black" stroke="black" points="257.271,-71.4187 253.44,-61.541 250.275,-71.6521 257.271,-71.4187"/>
<text text-anchor="middle" x="272.5" y="-82.8" font-family="Helvetica,sans-Serif" font-size="8.00">tutorial</text>
</g>
<!-- django_contrib_auth_models_Group -->
<g id="node6" class="node"><title>django_contrib_auth_models_Group</title>
<polygon fill="palegoldenrod" stroke="palegoldenrod" points="351.5,-22.5 351.5,-39.5 392.5,-39.5 392.5,-22.5 351.5,-22.5"/>
<polygon fill="#698b22" stroke="#698b22" points="352,-22 352,-39 393,-39 393,-22 352,-22"/>
<text text-anchor="start" x="357" y="-28.6333" font-family="Helvetica Bold" font-size="8.00" fill="white">Group</text>
</g>
<!-- praktomat_accounts_models_User&#45;&gt;django_contrib_auth_models_Group -->
<g id="edge6" class="edge"><title>praktomat_accounts_models_User&#45;&gt;django_contrib_auth_models_Group</title>
<path fill="none" stroke="black" d="M348.15,-108.4C353.86,-89.871 359.25,-72.401 363.45,-58.764"/>
<polygon fill="black" stroke="black" points="366.819,-59.7159 366.41,-49.129 360.128,-57.6602 366.819,-59.7159"/>
<text text-anchor="middle" x="370.5" y="-82.8" font-family="Helvetica,sans-Serif" font-size="8.00">groups</text>
</g>
<!-- django_contrib_auth_models_Permission -->
<g id="node8" class="node"><title>django_contrib_auth_models_Permission</title>
<polygon fill="palegoldenrod" stroke="palegoldenrod" points="425.5,-22.5 425.5,-39.5 490.5,-39.5 490.5,-22.5 425.5,-22.5"/>
<polygon fill="#698b22" stroke="#698b22" points="426,-22 426,-39 491,-39 491,-22 426,-22"/>
<text text-anchor="start" x="430.5" y="-28.6333" font-family="Helvetica Bold" font-size="8.00" fill="white">Permission</text>
</g>
<!-- praktomat_accounts_models_User&#45;&gt;django_contrib_auth_models_Permission -->
<g id="edge8" class="edge"><title>praktomat_accounts_models_User&#45;&gt;django_contrib_auth_models_Permission</title>
<path fill="none" stroke="black" d="M395.02,-115.83C411.3,-93.904 426.87,-72.924 438.46,-57.313"/>
<polygon fill="black" stroke="black" points="441.317,-59.3359 444.47,-49.221 435.698,-55.1621 441.317,-59.3359"/>
<text text-anchor="middle" x="457" y="-82.8" font-family="Helvetica,sans-Serif" font-size="8.00">user_permissions</text>
</g>
<!-- praktomat_accounts_models_Tutorial&#45;&gt;praktomat_accounts_models_User -->
<g id="edge10" class="edge"><title>praktomat_accounts_models_Tutorial&#45;&gt;praktomat_accounts_models_User</title>
<path fill="none" stroke="black" d="M279.4,-61.676C283.11,-67.502 286.52,-73.741 289,-80 291.33,-85.904 293.42,-92.029 295.3,-98.279"/>
<polygon fill="black" stroke="black" points="292.006,-99.4955 298.06,-108.19 298.749,-97.6176 292.006,-99.4955"/>
<text text-anchor="middle" x="305" y="-82.8" font-family="Helvetica,sans-Serif" font-size="8.00">tutors</text>
</g>
</g>
</svg>
