<?xml version="1.0" encoding="UTF-8" standalone="no"?>
<!DOCTYPE svg PUBLIC "-//W3C//DTD SVG 1.1//EN"
 "http://www.w3.org/Graphics/SVG/1.1/DTD/svg11.dtd">
<!-- Generated by graphviz version 2.27.20110109.0545 (20110109.0545)
 -->
<!-- Title: name Pages: 1 -->
<svg width="650pt" height="478pt"
 viewBox="0.00 0.00 650.00 478.00" xmlns="http://www.w3.org/2000/svg" xmlns:xlink="http://www.w3.org/1999/xlink">
<g id="graph1" class="graph" transform="scale(1 1) rotate(0) translate(4 474)">
<title>name</title>
<polygon fill="white" stroke="white" points="-4,5 -4,-474 647,-474 647,5 -4,5"/>
<!-- praktomat_attestation_models_Attestation -->
<g id="node1" class="node"><title>praktomat_attestation_models_Attestation</title>
<polygon fill="palegoldenrod" stroke="palegoldenrod" points="324,-220.5 324,-345.5 458,-345.5 458,-220.5 324,-220.5"/>
<polygon fill="#698b22" stroke="#698b22" points="324,-328 324,-345 458,-345 458,-328 324,-328"/>
<text text-anchor="start" x="368.5" y="-334.633" font-family="Helvetica Bold" font-size="8.00" fill="white">Attestation</text>
<text text-anchor="start" x="326" y="-320.133" font-family="Helvetica Bold" font-size="8.00" fill="#7b7b7b">id</text>
<text text-anchor="start" x="399" y="-320.133" font-family="Helvetica Bold" font-size="8.00" fill="#7b7b7b">AutoField</text>
<text text-anchor="start" x="326" y="-308.133" font-family="Helvetica Bold" font-size="8.00" fill="#7b7b7b">created</text>
<text text-anchor="start" x="399" y="-308.133" font-family="Helvetica Bold" font-size="8.00" fill="#7b7b7b">DateTimeField</text>
<text text-anchor="start" x="326" y="-296.133" font-family="Helvetica Bold" font-size="8.00">solution</text>
<text text-anchor="start" x="399" y="-296.133" font-family="Helvetica Bold" font-size="8.00">ForeignKey</text>
<text text-anchor="start" x="326" y="-284.133" font-family="Helvetica Bold" font-size="8.00">author</text>
<text text-anchor="start" x="399" y="-284.133" font-family="Helvetica Bold" font-size="8.00">ForeignKey</text>
<text text-anchor="start" x="326" y="-272.133" font-family="Helvetica Bold" font-size="8.00" fill="#7b7b7b">public_comment</text>
<text text-anchor="start" x="399" y="-272.133" font-family="Helvetica Bold" font-size="8.00" fill="#7b7b7b">TextField</text>
<text text-anchor="start" x="326" y="-260.133" font-family="Helvetica Bold" font-size="8.00" fill="#7b7b7b">private_comment</text>
<text text-anchor="start" x="399" y="-260.133" font-family="Helvetica Bold" font-size="8.00" fill="#7b7b7b">TextField</text>
<text text-anchor="start" x="326" y="-248.133" font-family="Helvetica Bold" font-size="8.00">final_grade</text>
<text text-anchor="start" x="399" y="-248.133" font-family="Helvetica Bold" font-size="8.00">ForeignKey</text>
<text text-anchor="start" x="326" y="-236.133" font-family="Helvetica Bold" font-size="8.00" fill="#7b7b7b">final</text>
<text text-anchor="start" x="399" y="-236.133" font-family="Helvetica Bold" font-size="8.00" fill="#7b7b7b">BooleanField</text>
<text text-anchor="start" x="326" y="-224.133" font-family="Helvetica Bold" font-size="8.00" fill="#7b7b7b">published</text>
<text text-anchor="start" x="399" y="-224.133" font-family="Helvetica Bold" font-size="8.00" fill="#7b7b7b">BooleanField</text>
</g>
<!-- praktomat_attestation_models_RatingScaleItem -->
<g id="node2" class="node"><title>praktomat_attestation_models_RatingScaleItem</title>
<polygon fill="palegoldenrod" stroke="palegoldenrod" points="249.5,-100.5 249.5,-165.5 426.5,-165.5 426.5,-100.5 249.5,-100.5"/>
<polygon fill="#698b22" stroke="#698b22" points="250,-148 250,-165 427,-165 427,-148 250,-148"/>
<text text-anchor="start" x="298" y="-154.633" font-family="Helvetica Bold" font-size="8.00" fill="white">RatingScaleItem</text>
<text text-anchor="start" x="252" y="-140.133" font-family="Helvetica Bold" font-size="8.00" fill="#7b7b7b">id</text>
<text text-anchor="start" x="299" y="-140.133" font-family="Helvetica Bold" font-size="8.00" fill="#7b7b7b">AutoField</text>
<text text-anchor="start" x="252" y="-128.133" font-family="Helvetica Bold" font-size="8.00">scale</text>
<text text-anchor="start" x="299" y="-128.133" font-family="Helvetica Bold" font-size="8.00">ForeignKey</text>
<text text-anchor="start" x="252" y="-116.133" font-family="Helvetica Bold" font-size="8.00">name</text>
<text text-anchor="start" x="299" y="-116.133" font-family="Helvetica Bold" font-size="8.00">CharField</text>
<text text-anchor="start" x="252" y="-104.133" font-family="Helvetica Bold" font-size="8.00">position</text>
<text text-anchor="start" x="299" y="-104.133" font-family="Helvetica Bold" font-size="8.00">PositiveSmallIntegerField</text>
</g>
<!-- praktomat_attestation_models_Attestation&#45;&gt;praktomat_attestation_models_RatingScaleItem -->
<g id="edge2" class="edge"><title>praktomat_attestation_models_Attestation&#45;&gt;praktomat_attestation_models_RatingScaleItem</title>
<path fill="none" stroke="black" d="M367.44,-216.33C363.04,-203.86 358.52,-191.08 354.39,-179.39"/>
<polygon fill="black" stroke="black" points="357.654,-178.121 351.02,-169.86 351.054,-180.455 357.654,-178.121"/>
<text text-anchor="middle" x="383.5" y="-190.8" font-family="Helvetica,sans-Serif" font-size="8.00">final_grade</text>
</g>
<!-- praktomat_solutions_models_Solution -->
<g id="node4" class="node"><title>praktomat_solutions_models_Solution</title>
<polygon fill="palegoldenrod" stroke="palegoldenrod" points="459.5,-124.5 459.5,-141.5 512.5,-141.5 512.5,-124.5 459.5,-124.5"/>
<polygon fill="#698b22" stroke="#698b22" points="460,-124 460,-141 513,-141 513,-124 460,-124"/>
<text text-anchor="start" x="465" y="-130.633" font-family="Helvetica Bold" font-size="8.00" fill="white">Solution</text>
</g>
<!-- praktomat_attestation_models_Attestation&#45;&gt;praktomat_solutions_models_Solution -->
<g id="edge4" class="edge"><title>praktomat_attestation_models_Attestation&#45;&gt;praktomat_solutions_models_Solution</title>
<path fill="none" stroke="black" d="M433.22,-216.33C445.81,-196.45 458.91,-175.78 468.9,-159.99"/>
<polygon fill="black" stroke="black" points="472.004,-161.63 474.4,-151.31 466.091,-157.884 472.004,-161.63"/>
<text text-anchor="middle" x="467.5" y="-190.8" font-family="Helvetica,sans-Serif" font-size="8.00">solution</text>
</g>
<!-- praktomat_accounts_models_User -->
<g id="node6" class="node"><title>praktomat_accounts_models_User</title>
<polygon fill="palegoldenrod" stroke="palegoldenrod" points="180.5,-124.5 180.5,-141.5 213.5,-141.5 213.5,-124.5 180.5,-124.5"/>
<polygon fill="#698b22" stroke="#698b22" points="181,-124 181,-141 214,-141 214,-124 181,-124"/>
<text text-anchor="start" x="186" y="-130.633" font-family="Helvetica Bold" font-size="8.00" fill="white">User</text>
</g>
<!-- praktomat_attestation_models_Attestation&#45;&gt;praktomat_accounts_models_User -->
<g id="edge6" class="edge"><title>praktomat_attestation_models_Attestation&#45;&gt;praktomat_accounts_models_User</title>
<path fill="none" stroke="black" d="M315.96,-226.04C311.26,-222.61 306.58,-219.24 302,-216 271.93,-194.69 261.34,-193.56 233,-170 228.69,-166.42 224.34,-162.38 220.23,-158.32"/>
<polygon fill="black" stroke="black" points="222.634,-155.773 213.13,-151.09 217.639,-160.677 222.634,-155.773"/>
<text text-anchor="middle" x="287" y="-190.8" font-family="Helvetica,sans-Serif" font-size="8.00">author</text>
</g>
<!-- praktomat_attestation_models_RatingScale -->
<g id="node8" class="node"><title>praktomat_attestation_models_RatingScale</title>
<polygon fill="palegoldenrod" stroke="palegoldenrod" points="110.5,-4.5 110.5,-45.5 197.5,-45.5 197.5,-4.5 110.5,-4.5"/>
<polygon fill="#698b22" stroke="#698b22" points="111,-28 111,-45 198,-45 198,-28 111,-28"/>
<text text-anchor="start" x="125" y="-34.6333" font-family="Helvetica Bold" font-size="8.00" fill="white">RatingScale</text>
<text text-anchor="start" x="113" y="-20.1333" font-family="Helvetica Bold" font-size="8.00" fill="#7b7b7b">id</text>
<text text-anchor="start" x="148" y="-20.1333" font-family="Helvetica Bold" font-size="8.00" fill="#7b7b7b">AutoField</text>
<text text-anchor="start" x="113" y="-8.13333" font-family="Helvetica Bold" font-size="8.00">name</text>
<text text-anchor="start" x="148" y="-8.13333" font-family="Helvetica Bold" font-size="8.00">CharField</text>
</g>
<!-- praktomat_attestation_models_RatingScaleItem&#45;&gt;praktomat_attestation_models_RatingScale -->
<g id="edge8" class="edge"><title>praktomat_attestation_models_RatingScaleItem&#45;&gt;praktomat_attestation_models_RatingScale</title>
<path fill="none" stroke="black" d="M275.71,-96.436C252.61,-82.882 226.73,-67.687 204.78,-54.807"/>
<polygon fill="black" stroke="black" points="206.346,-51.6679 195.95,-49.625 202.803,-57.705 206.346,-51.6679"/>
<text text-anchor="middle" x="252" y="-70.8" font-family="Helvetica,sans-Serif" font-size="8.00">scale</text>
</g>
<!-- praktomat_attestation_models_AnnotatedSolutionFile -->
<g id="node10" class="node"><title>praktomat_attestation_models_AnnotatedSolutionFile</title>
<polygon fill="palegoldenrod" stroke="palegoldenrod" points="386,-400.5 386,-465.5 514,-465.5 514,-400.5 386,-400.5"/>
<polygon fill="#698b22" stroke="#698b22" points="386,-448 386,-465 514,-465 514,-448 386,-448"/>
<text text-anchor="start" x="394" y="-454.633" font-family="Helvetica Bold" font-size="8.00" fill="white">AnnotatedSolutionFile</text>
<text text-anchor="start" x="388" y="-440.133" font-family="Helvetica Bold" font-size="8.00" fill="#7b7b7b">id</text>
<text text-anchor="start" x="456" y="-440.133" font-family="Helvetica Bold" font-size="8.00" fill="#7b7b7b">AutoField</text>
<text text-anchor="start" x="388" y="-428.133" font-family="Helvetica Bold" font-size="8.00">attestation</text>
<text text-anchor="start" x="456" y="-428.133" font-family="Helvetica Bold" font-size="8.00">ForeignKey</text>
<text text-anchor="start" x="388" y="-416.133" font-family="Helvetica Bold" font-size="8.00">solution_file</text>
<text text-anchor="start" x="456" y="-416.133" font-family="Helvetica Bold" font-size="8.00">ForeignKey</text>
<text text-anchor="start" x="388" y="-404.133" font-family="Helvetica Bold" font-size="8.00">content</text>
<text text-anchor="start" x="456" y="-404.133" font-family="Helvetica Bold" font-size="8.00">TextField</text>
</g>
<!-- praktomat_attestation_models_AnnotatedSolutionFile&#45;&gt;praktomat_attestation_models_Attestation -->
<g id="edge10" class="edge"><title>praktomat_attestation_models_AnnotatedSolutionFile&#45;&gt;praktomat_attestation_models_Attestation</title>
<path fill="none" stroke="black" d="M435.57,-396.31C431.12,-385 426.05,-372.11 420.96,-359.16"/>
<polygon fill="black" stroke="black" points="424.18,-357.783 417.26,-349.76 417.666,-360.347 424.18,-357.783"/>
<text text-anchor="middle" x="452" y="-370.8" font-family="Helvetica,sans-Serif" font-size="8.00">attestation</text>
</g>
<!-- praktomat_solutions_models_SolutionFile -->
<g id="node12" class="node"><title>praktomat_solutions_models_SolutionFile</title>
<polygon fill="palegoldenrod" stroke="palegoldenrod" points="491.5,-274.5 491.5,-291.5 560.5,-291.5 560.5,-274.5 491.5,-274.5"/>
<polygon fill="#698b22" stroke="#698b22" points="492,-274 492,-291 561,-291 561,-274 492,-274"/>
<text text-anchor="start" x="496.5" y="-280.633" font-family="Helvetica Bold" font-size="8.00" fill="white">SolutionFile</text>
</g>
<!-- praktomat_attestation_models_AnnotatedSolutionFile&#45;&gt;praktomat_solutions_models_SolutionFile -->
<g id="edge12" class="edge"><title>praktomat_attestation_models_AnnotatedSolutionFile&#45;&gt;praktomat_solutions_models_SolutionFile</title>
<path fill="none" stroke="black" d="M471.21,-396.21C474.56,-390.17 477.93,-383.94 481,-378 492.65,-355.51 504.89,-329.48 513.67,-310.36"/>
<polygon fill="black" stroke="black" points="516.955,-311.592 517.91,-301.04 510.583,-308.693 516.955,-311.592"/>
<text text-anchor="middle" x="511.5" y="-370.8" font-family="Helvetica,sans-Serif" font-size="8.00">solution_file</text>
</g>
<!-- praktomat_attestation_models_RatingAspect -->
<g id="node14" class="node"><title>praktomat_attestation_models_RatingAspect</title>
<polygon fill="palegoldenrod" stroke="palegoldenrod" points="118,-256.5 118,-309.5 232,-309.5 232,-256.5 118,-256.5"/>
<polygon fill="#698b22" stroke="#698b22" points="118,-292 118,-309 232,-309 232,-292 118,-292"/>
<text text-anchor="start" x="141.5" y="-298.633" font-family="Helvetica Bold" font-size="8.00" fill="white">RatingAspect</text>
<text text-anchor="start" x="120" y="-284.133" font-family="Helvetica Bold" font-size="8.00" fill="#7b7b7b">id</text>
<text text-anchor="start" x="182" y="-284.133" font-family="Helvetica Bold" font-size="8.00" fill="#7b7b7b">AutoField</text>
<text text-anchor="start" x="120" y="-272.133" font-family="Helvetica Bold" font-size="8.00">name</text>
<text text-anchor="start" x="182" y="-272.133" font-family="Helvetica Bold" font-size="8.00">CharField</text>
<text text-anchor="start" x="120" y="-260.133" font-family="Helvetica Bold" font-size="8.00">description</text>
<text text-anchor="start" x="182" y="-260.133" font-family="Helvetica Bold" font-size="8.00">TextField</text>
</g>
<!-- praktomat_attestation_models_Rating -->
<g id="node15" class="node"><title>praktomat_attestation_models_Rating</title>
<polygon fill="palegoldenrod" stroke="palegoldenrod" points="32.5,-400.5 32.5,-465.5 131.5,-465.5 131.5,-400.5 32.5,-400.5"/>
<polygon fill="#698b22" stroke="#698b22" points="33,-448 33,-465 132,-465 132,-448 33,-448"/>
<text text-anchor="start" x="66.5" y="-454.633" font-family="Helvetica Bold" font-size="8.00" fill="white">Rating</text>
<text text-anchor="start" x="35" y="-440.133" font-family="Helvetica Bold" font-size="8.00" fill="#7b7b7b">id</text>
<text text-anchor="start" x="74" y="-440.133" font-family="Helvetica Bold" font-size="8.00" fill="#7b7b7b">AutoField</text>
<text text-anchor="start" x="35" y="-428.133" font-family="Helvetica Bold" font-size="8.00">task</text>
<text text-anchor="start" x="74" y="-428.133" font-family="Helvetica Bold" font-size="8.00">ForeignKey</text>
<text text-anchor="start" x="35" y="-416.133" font-family="Helvetica Bold" font-size="8.00">aspect</text>
<text text-anchor="start" x="74" y="-416.133" font-family="Helvetica Bold" font-size="8.00">ForeignKey</text>
<text text-anchor="start" x="35" y="-404.133" font-family="Helvetica Bold" font-size="8.00">scale</text>
<text text-anchor="start" x="74" y="-404.133" font-family="Helvetica Bold" font-size="8.00">ForeignKey</text>
</g>
<!-- praktomat_attestation_models_Rating&#45;&gt;praktomat_attestation_models_RatingScale -->
<g id="edge16" class="edge"><title>praktomat_attestation_models_Rating&#45;&gt;praktomat_attestation_models_RatingScale</title>
<path fill="none" stroke="black" d="M83.165,-396.25C85.013,-352.88 89.654,-278.7 101,-216 111.1,-160.2 130.15,-97.104 142.45,-59.22"/>
<polygon fill="black" stroke="black" points="145.784,-60.2839 145.58,-49.691 139.134,-58.0993 145.784,-60.2839"/>
<text text-anchor="middle" x="119" y="-190.8" font-family="Helvetica,sans-Serif" font-size="8.00">scale</text>
</g>
<!-- praktomat_attestation_models_Rating&#45;&gt;praktomat_attestation_models_RatingAspect -->
<g id="edge14" class="edge"><title>praktomat_attestation_models_Rating&#45;&gt;praktomat_attestation_models_RatingAspect</title>
<path fill="none" stroke="black" d="M104.75,-396.31C118.61,-373.95 136.32,-345.38 150.49,-322.53"/>
<polygon fill="black" stroke="black" points="153.638,-324.094 155.93,-313.75 147.688,-320.407 153.638,-324.094"/>
<text text-anchor="middle" x="136.5" y="-370.8" font-family="Helvetica,sans-Serif" font-size="8.00">aspect</text>
</g>
<!-- praktomat_tasks_models_Task -->
<g id="node18" class="node"><title>praktomat_tasks_models_Task</title>
<polygon fill="palegoldenrod" stroke="palegoldenrod" points="10.5,-274.5 10.5,-291.5 43.5,-291.5 43.5,-274.5 10.5,-274.5"/>
<polygon fill="#698b22" stroke="#698b22" points="11,-274 11,-291 44,-291 44,-274 11,-274"/>
<text text-anchor="start" x="15.5" y="-280.633" font-family="Helvetica Bold" font-size="8.00" fill="white">Task</text>
</g>
<!-- praktomat_attestation_models_Rating&#45;&gt;praktomat_tasks_models_Task -->
<g id="edge18" class="edge"><title>praktomat_attestation_models_Rating&#45;&gt;praktomat_tasks_models_Task</title>
<path fill="none" stroke="black" d="M57.823,-396.24C54.541,-390.3 51.461,-384.09 49,-378 40.224,-356.28 34.508,-330.28 31.107,-310.98"/>
<polygon fill="black" stroke="black" points="34.5439,-310.311 29.452,-301.02 27.6386,-311.458 34.5439,-310.311"/>
<text text-anchor="middle" x="58.5" y="-370.8" font-family="Helvetica,sans-Serif" font-size="8.00">task</text>
</g>
<!-- praktomat_attestation_models_RatingResult -->
<g id="node20" class="node"><title>praktomat_attestation_models_RatingResult</title>
<polygon fill="palegoldenrod" stroke="palegoldenrod" points="215,-400.5 215,-465.5 337,-465.5 337,-400.5 215,-400.5"/>
<polygon fill="#698b22" stroke="#698b22" points="215,-448 215,-465 337,-465 337,-448 215,-448"/>
<text text-anchor="start" x="244" y="-454.633" font-family="Helvetica Bold" font-size="8.00" fill="white">RatingResult</text>
<text text-anchor="start" x="217" y="-440.133" font-family="Helvetica Bold" font-size="8.00" fill="#7b7b7b">id</text>
<text text-anchor="start" x="279" y="-440.133" font-family="Helvetica Bold" font-size="8.00" fill="#7b7b7b">AutoField</text>
<text text-anchor="start" x="217" y="-428.133" font-family="Helvetica Bold" font-size="8.00">attestation</text>
<text text-anchor="start" x="279" y="-428.133" font-family="Helvetica Bold" font-size="8.00">ForeignKey</text>
<text text-anchor="start" x="217" y="-416.133" font-family="Helvetica Bold" font-size="8.00">aspect</text>
<text text-anchor="start" x="279" y="-416.133" font-family="Helvetica Bold" font-size="8.00">ForeignKey</text>
<text text-anchor="start" x="217" y="-404.133" font-family="Helvetica Bold" font-size="8.00">mark</text>
<text text-anchor="start" x="279" y="-404.133" font-family="Helvetica Bold" font-size="8.00">ForeignKey</text>
</g>
<!-- praktomat_attestation_models_RatingResult&#45;&gt;praktomat_attestation_models_Attestation -->
<g id="edge20" class="edge"><title>praktomat_attestation_models_RatingResult&#45;&gt;praktomat_attestation_models_Attestation</title>
<path fill="none" stroke="black" d="M304.13,-396.31C313.05,-384.67 323.26,-371.35 333.47,-358.03"/>
<polygon fill="black" stroke="black" points="336.506,-359.823 339.82,-349.76 330.954,-355.56 336.506,-359.823"/>
<text text-anchor="middle" x="348" y="-370.8" font-family="Helvetica,sans-Serif" font-size="8.00">attestation</text>
</g>
<!-- praktomat_attestation_models_RatingResult&#45;&gt;praktomat_attestation_models_RatingScaleItem -->
<g id="edge22" class="edge"><title>praktomat_attestation_models_RatingResult&#45;&gt;praktomat_attestation_models_RatingScaleItem</title>
<path fill="none" stroke="black" d="M269.81,-396.41C263.15,-346.57 257.49,-255.8 290,-188 291.63,-184.6 293.53,-181.25 295.61,-177.98"/>
<polygon fill="black" stroke="black" points="298.647,-179.744 301.5,-169.54 292.907,-175.738 298.647,-179.744"/>
<text text-anchor="middle" x="289" y="-280.8" font-family="Helvetica,sans-Serif" font-size="8.00">mark</text>
</g>
<!-- praktomat_attestation_models_RatingResult&#45;&gt;praktomat_attestation_models_RatingAspect -->
<g id="edge24" class="edge"><title>praktomat_attestation_models_RatingResult&#45;&gt;praktomat_attestation_models_RatingAspect</title>
<path fill="none" stroke="black" d="M244.71,-396.32C239.96,-390.32 235.24,-384.07 231,-378 218.69,-360.35 206.39,-339.88 196.47,-322.48"/>
<polygon fill="black" stroke="black" points="199.473,-320.679 191.51,-313.69 193.376,-324.119 199.473,-320.679"/>
<text text-anchor="middle" x="246.5" y="-370.8" font-family="Helvetica,sans-Serif" font-size="8.00">aspect</text>
</g>
<!-- praktomat_attestation_models_Script -->
<g id="node24" class="node"><title>praktomat_attestation_models_Script</title>
<polygon fill="palegoldenrod" stroke="palegoldenrod" points="547.5,-412.5 547.5,-453.5 634.5,-453.5 634.5,-412.5 547.5,-412.5"/>
<polygon fill="#698b22" stroke="#698b22" points="548,-436 548,-453 635,-453 635,-436 548,-436"/>
<text text-anchor="start" x="576" y="-442.633" font-family="Helvetica Bold" font-size="8.00" fill="white">Script</text>
<text text-anchor="start" x="550" y="-428.133" font-family="Helvetica Bold" font-size="8.00" fill="#7b7b7b">id</text>
<text text-anchor="start" x="585" y="-428.133" font-family="Helvetica Bold" font-size="8.00" fill="#7b7b7b">AutoField</text>
<text text-anchor="start" x="550" y="-416.133" font-family="Helvetica Bold" font-size="8.00" fill="#7b7b7b">script</text>
<text text-anchor="start" x="585" y="-416.133" font-family="Helvetica Bold" font-size="8.00" fill="#7b7b7b">TextField</text>
</g>
</g>
</svg>
