<?xml version="1.0" encoding="UTF-8" standalone="no"?>
<!DOCTYPE svg PUBLIC "-//W3C//DTD SVG 1.1//EN"
 "http://www.w3.org/Graphics/SVG/1.1/DTD/svg11.dtd">
<!-- Generated by graphviz version 2.26.3 (20100126.1600)
 -->
<!-- Title: model_graph Pages: 1 -->
<svg width="853pt" height="582pt"
 viewBox="0.00 0.00 853.00 582.00" xmlns="http://www.w3.org/2000/svg" xmlns:xlink="http://www.w3.org/1999/xlink">
<g id="graph1" class="graph" transform="scale(1 1) rotate(0) translate(4 578)">
<title>model_graph</title>
<polygon fill="white" stroke="white" points="-4,5 -4,-578 850,-578 850,5 -4,5"/>
<g id="graph2" class="cluster"><title>cluster_tasks_models</title>
<polyline fill="none" stroke="#698b22" points="686,-232 825,-232 "/>
<path fill="none" stroke="#698b22" d="M825,-232C831,-232 837,-238 837,-244"/>
<polyline fill="none" stroke="#698b22" points="837,-244 837,-414 "/>
<path fill="none" stroke="#698b22" d="M837,-414C837,-420 831,-426 825,-426"/>
<polyline fill="none" stroke="#698b22" points="825,-426 686,-426 "/>
<path fill="none" stroke="#698b22" d="M686,-426C680,-426 674,-420 674,-414"/>
<polyline fill="none" stroke="#698b22" points="674,-414 674,-244 "/>
<path fill="none" stroke="#698b22" d="M674,-244C674,-238 680,-232 686,-232"/>
<text text-anchor="start" x="687.5" y="-407.8" font-family="Helvetica,sans-Serif" font-size="8.00"> &#160;&#160;&#160;&#160;&#160;&#160;&#160;&#160;&#160;</text>
<text text-anchor="start" x="710.5" y="-408.2" font-family="Helvetica Bold" font-size="12.00"> &#160;&#160;&#160;&#160;&#160;&#160;&#160;&#160;&#160;tasks &#160;&#160;&#160;&#160;&#160;&#160;&#160;&#160;&#160;</text>
<text text-anchor="start" x="801.5" y="-407.8" font-family="Helvetica,sans-Serif" font-size="8.00"> &#160;&#160;&#160;&#160;&#160;&#160;&#160;&#160;&#160;</text>
</g>
<g id="graph3" class="cluster"><title>cluster_solutions_models</title>
<polyline fill="none" stroke="#698b22" points="20,-232 181,-232 "/>
<path fill="none" stroke="#698b22" d="M181,-232C187,-232 193,-238 193,-244"/>
<polyline fill="none" stroke="#698b22" points="193,-244 193,-414 "/>
<path fill="none" stroke="#698b22" d="M193,-414C193,-420 187,-426 181,-426"/>
<polyline fill="none" stroke="#698b22" points="181,-426 20,-426 "/>
<path fill="none" stroke="#698b22" d="M20,-426C14,-426 8,-420 8,-414"/>
<polyline fill="none" stroke="#698b22" points="8,-414 8,-244 "/>
<path fill="none" stroke="#698b22" d="M8,-244C8,-238 14,-232 20,-232"/>
<text text-anchor="start" x="21" y="-407.8" font-family="Helvetica,sans-Serif" font-size="8.00"> &#160;&#160;&#160;&#160;&#160;&#160;&#160;&#160;&#160;</text>
<text text-anchor="start" x="44" y="-408.2" font-family="Helvetica Bold" font-size="12.00"> &#160;&#160;&#160;&#160;&#160;&#160;&#160;&#160;&#160;solutions &#160;&#160;&#160;&#160;&#160;&#160;&#160;&#160;&#160;</text>
<text text-anchor="start" x="158" y="-407.8" font-family="Helvetica,sans-Serif" font-size="8.00"> &#160;&#160;&#160;&#160;&#160;&#160;&#160;&#160;&#160;</text>
</g>
<g id="graph4" class="cluster"><title>cluster_attestation_models</title>
<polyline fill="none" stroke="#698b22" points="262,-92 654,-92 "/>
<path fill="none" stroke="#698b22" d="M654,-92C660,-92 666,-98 666,-104"/>
<polyline fill="none" stroke="#698b22" points="666,-104 666,-554 "/>
<path fill="none" stroke="#698b22" d="M666,-554C666,-560 660,-566 654,-566"/>
<polyline fill="none" stroke="#698b22" points="654,-566 262,-566 "/>
<path fill="none" stroke="#698b22" d="M262,-566C256,-566 250,-560 250,-554"/>
<polyline fill="none" stroke="#698b22" points="250,-554 250,-104 "/>
<path fill="none" stroke="#698b22" d="M250,-104C250,-98 256,-92 262,-92"/>
<text text-anchor="start" x="375" y="-547.8" font-family="Helvetica,sans-Serif" font-size="8.00"> &#160;&#160;&#160;&#160;&#160;&#160;&#160;&#160;&#160;</text>
<text text-anchor="start" x="398" y="-548.2" font-family="Helvetica Bold" font-size="12.00"> &#160;&#160;&#160;&#160;&#160;&#160;&#160;&#160;&#160;attestation &#160;&#160;&#160;&#160;&#160;&#160;&#160;&#160;&#160;</text>
<text text-anchor="start" x="519" y="-547.8" font-family="Helvetica,sans-Serif" font-size="8.00"> &#160;&#160;&#160;&#160;&#160;&#160;&#160;&#160;&#160;</text>
</g>
<g id="graph5" class="cluster"><title>cluster_accounts_models</title>
<polyline fill="none" stroke="#698b22" points="59,-8 228,-8 "/>
<path fill="none" stroke="#698b22" d="M228,-8C234,-8 240,-14 240,-20"/>
<polyline fill="none" stroke="#698b22" points="240,-20 240,-190 "/>
<path fill="none" stroke="#698b22" d="M240,-190C240,-196 234,-202 228,-202"/>
<polyline fill="none" stroke="#698b22" points="228,-202 59,-202 "/>
<path fill="none" stroke="#698b22" d="M59,-202C53,-202 47,-196 47,-190"/>
<polyline fill="none" stroke="#698b22" points="47,-190 47,-20 "/>
<path fill="none" stroke="#698b22" d="M47,-20C47,-14 53,-8 59,-8"/>
<text text-anchor="start" x="64" y="-183.8" font-family="Helvetica,sans-Serif" font-size="8.00"> &#160;&#160;&#160;&#160;&#160;&#160;&#160;&#160;&#160;</text>
<text text-anchor="start" x="87" y="-184.2" font-family="Helvetica Bold" font-size="12.00"> &#160;&#160;&#160;&#160;&#160;&#160;&#160;&#160;&#160;accounts &#160;&#160;&#160;&#160;&#160;&#160;&#160;&#160;&#160;</text>
<text text-anchor="start" x="201" y="-183.8" font-family="Helvetica,sans-Serif" font-size="8.00"> &#160;&#160;&#160;&#160;&#160;&#160;&#160;&#160;&#160;</text>
</g>
<!-- tasks_models_Task -->
<g id="node2" class="node"><title>tasks_models_Task</title>
<polygon fill="palegoldenrod" stroke="palegoldenrod" points="689.5,-249.5 689.5,-266.5 758.5,-266.5 758.5,-249.5 689.5,-249.5"/>
<polygon fill="#698b22" stroke="#698b22" points="690,-249 690,-266 759,-266 759,-249 690,-249"/>
<text text-anchor="start" x="694.5" y="-255.633" font-family="Helvetica,sans-Serif" font-size="8.00"> &#160;&#160;&#160;&#160;&#160;</text>
<text text-anchor="start" x="708.5" y="-255.633" font-family="Helvetica Bold" font-size="8.00" fill="white"> &#160;&#160;&#160;&#160;&#160;Task &#160;&#160;&#160;&#160;&#160;</text>
</g>
<!-- solutions_models_Solution -->
<g id="node6" class="node"><title>solutions_models_Solution</title>
<polygon fill="palegoldenrod" stroke="palegoldenrod" points="91.5,-249.5 91.5,-266.5 176.5,-266.5 176.5,-249.5 91.5,-249.5"/>
<polygon fill="#698b22" stroke="#698b22" points="92,-249 92,-266 177,-266 177,-249 92,-249"/>
<text text-anchor="start" x="97" y="-255.633" font-family="Helvetica,sans-Serif" font-size="8.00"> &#160;&#160;&#160;&#160;&#160;</text>
<text text-anchor="start" x="111" y="-255.633" font-family="Helvetica Bold" font-size="8.00" fill="white"> &#160;&#160;&#160;&#160;&#160;Solution &#160;&#160;&#160;&#160;&#160;</text>
</g>
<!-- tasks_models_Task&#45;&gt;solutions_models_Solution -->
<g id="edge30" class="edge"><title>tasks_models_Task&#45;&gt;solutions_models_Solution</title>
<path fill="none" stroke="black" d="M674.07,-274.85C672.7,-275.25 671.34,-275.63 670,-276 619.56,-289.85 607.01,-295.41 555,-301 495.79,-307.36 480.46,-304.32 421,-301 321.42,-295.44 295.88,-295.12 198,-276 193.47,-275.11 188.79,-274.07 184.12,-272.93"/>
<ellipse fill="black" stroke="black" cx="678.147" cy="-273.634" rx="4.00001" ry="4.00001"/>
<text text-anchor="middle" x="488" y="-298.8" font-family="Helvetica,sans-Serif" font-size="8.00">model_solution (model_solution_task)</text>
</g>
<!-- attestation_models_RatingScale -->
<g id="node16" class="node"><title>attestation_models_RatingScale</title>
<polygon fill="palegoldenrod" stroke="palegoldenrod" points="423.5,-109.5 423.5,-126.5 522.5,-126.5 522.5,-109.5 423.5,-109.5"/>
<polygon fill="#698b22" stroke="#698b22" points="424,-109 424,-126 523,-126 523,-109 424,-109"/>
<text text-anchor="start" x="429" y="-115.633" font-family="Helvetica,sans-Serif" font-size="8.00"> &#160;&#160;&#160;&#160;&#160;</text>
<text text-anchor="start" x="443" y="-115.633" font-family="Helvetica Bold" font-size="8.00" fill="white"> &#160;&#160;&#160;&#160;&#160;RatingScale &#160;&#160;&#160;&#160;&#160;</text>
</g>
<!-- tasks_models_Task&#45;&gt;attestation_models_RatingScale -->
<g id="edge32" class="edge"><title>tasks_models_Task&#45;&gt;attestation_models_RatingScale</title>
<path fill="none" stroke="black" d="M684.67,-236.07C635.31,-208.53 551.53,-161.8 505.57,-136.17"/>
<ellipse fill="black" stroke="black" cx="688.204" cy="-238.036" rx="4.00002" ry="4.00002"/>
<text text-anchor="middle" x="712" y="-214.8" font-family="Helvetica,sans-Serif" font-size="8.00">final_grade_rating_scale (task)</text>
</g>
<!-- tasks_models_MediaFile -->
<g id="node3" class="node"><title>tasks_models_MediaFile</title>
<polygon fill="palegoldenrod" stroke="palegoldenrod" points="694.5,-333.5 694.5,-350.5 783.5,-350.5 783.5,-333.5 694.5,-333.5"/>
<polygon fill="#698b22" stroke="#698b22" points="695,-333 695,-350 784,-350 784,-333 695,-333"/>
<text text-anchor="start" x="700" y="-339.633" font-family="Helvetica,sans-Serif" font-size="8.00"> &#160;&#160;&#160;&#160;&#160;</text>
<text text-anchor="start" x="714" y="-339.633" font-family="Helvetica Bold" font-size="8.00" fill="white"> &#160;&#160;&#160;&#160;&#160;MediaFile &#160;&#160;&#160;&#160;&#160;</text>
</g>
<!-- tasks_models_MediaFile&#45;&gt;tasks_models_Task -->
<g id="edge3" class="edge"><title>tasks_models_MediaFile&#45;&gt;tasks_models_Task</title>
<path fill="none" stroke="black" d="M734.31,-315.72C732.01,-302.88 729.31,-287.74 727.25,-276.19"/>
<ellipse fill="black" stroke="black" cx="735.046" cy="-319.833" rx="4.00001" ry="4.00001"/>
<text text-anchor="middle" x="759.5" y="-298.8" font-family="Helvetica,sans-Serif" font-size="8.00">task (mediafile)</text>
</g>
<!-- solutions_models_Solution&#45;&gt;tasks_models_Task -->
<g id="edge34" class="edge"><title>solutions_models_Solution&#45;&gt;tasks_models_Task</title>
<path fill="none" stroke="black" d="M192,-274.66C194.02,-275.13 196.02,-275.58 198,-276 271.82,-291.81 290.72,-295.43 366,-301 471.45,-308.8 649.72,-280.32 670,-276 673.87,-275.18 677.84,-274.17 681.8,-273.06"/>
<ellipse fill="black" stroke="black" cx="188.046" cy="-273.697" rx="4.00001" ry="4.00001"/>
<text text-anchor="middle" x="391" y="-298.8" font-family="Helvetica,sans-Serif" font-size="8.00">task (solution)</text>
</g>
<!-- accounts_models_User -->
<g id="node27" class="node"><title>accounts_models_User</title>
<polygon fill="palegoldenrod" stroke="palegoldenrod" points="108.5,-109.5 108.5,-126.5 177.5,-126.5 177.5,-109.5 108.5,-109.5"/>
<polygon fill="#698b22" stroke="#698b22" points="109,-109 109,-126 178,-126 178,-109 109,-109"/>
<text text-anchor="start" x="113.5" y="-115.633" font-family="Helvetica,sans-Serif" font-size="8.00"> &#160;&#160;&#160;&#160;&#160;</text>
<text text-anchor="start" x="127.5" y="-115.633" font-family="Helvetica Bold" font-size="8.00" fill="white"> &#160;&#160;&#160;&#160;&#160;User &#160;&#160;&#160;&#160;&#160;</text>
</g>
<!-- solutions_models_Solution&#45;&gt;accounts_models_User -->
<g id="edge36" class="edge"><title>solutions_models_Solution&#45;&gt;accounts_models_User</title>
<path fill="none" stroke="black" d="M135.68,-231.89C137.47,-204.09 140.25,-160.81 141.82,-136.39"/>
<ellipse fill="black" stroke="black" cx="135.417" cy="-235.988" rx="4" ry="4"/>
<text text-anchor="middle" x="166.5" y="-214.8" font-family="Helvetica,sans-Serif" font-size="8.00">author (solution)</text>
</g>
<!-- solutions_models_SolutionFile -->
<g id="node7" class="node"><title>solutions_models_SolutionFile</title>
<polygon fill="palegoldenrod" stroke="palegoldenrod" points="50.5,-333.5 50.5,-350.5 149.5,-350.5 149.5,-333.5 50.5,-333.5"/>
<polygon fill="#698b22" stroke="#698b22" points="51,-333 51,-350 150,-350 150,-333 51,-333"/>
<text text-anchor="start" x="55.5" y="-339.633" font-family="Helvetica,sans-Serif" font-size="8.00"> &#160;&#160;&#160;&#160;&#160;</text>
<text text-anchor="start" x="69.5" y="-339.633" font-family="Helvetica Bold" font-size="8.00" fill="white"> &#160;&#160;&#160;&#160;&#160;SolutionFile &#160;&#160;&#160;&#160;&#160;</text>
</g>
<!-- solutions_models_SolutionFile&#45;&gt;solutions_models_Solution -->
<g id="edge6" class="edge"><title>solutions_models_SolutionFile&#45;&gt;solutions_models_Solution</title>
<path fill="none" stroke="black" d="M46.623,-319.47C37.245,-312.27 32.342,-303.64 39,-294 44.687,-285.76 64.005,-277.75 83.75,-271.39"/>
<ellipse fill="black" stroke="black" cx="50.0318" cy="-321.754" rx="4.00002" ry="4.00002"/>
<text text-anchor="middle" x="75.5" y="-298.8" font-family="Helvetica,sans-Serif" font-size="8.00">solution (solutionfile)</text>
</g>
<!-- attestation_models_Attestation -->
<g id="node10" class="node"><title>attestation_models_Attestation</title>
<polygon fill="palegoldenrod" stroke="palegoldenrod" points="265.5,-333.5 265.5,-350.5 360.5,-350.5 360.5,-333.5 265.5,-333.5"/>
<polygon fill="#698b22" stroke="#698b22" points="266,-333 266,-350 361,-350 361,-333 266,-333"/>
<text text-anchor="start" x="270.5" y="-339.633" font-family="Helvetica,sans-Serif" font-size="8.00"> &#160;&#160;&#160;&#160;&#160;</text>
<text text-anchor="start" x="284.5" y="-339.633" font-family="Helvetica Bold" font-size="8.00" fill="white"> &#160;&#160;&#160;&#160;&#160;Attestation &#160;&#160;&#160;&#160;&#160;</text>
</g>
<!-- attestation_models_Attestation&#45;&gt;solutions_models_Solution -->
<g id="edge38" class="edge"><title>attestation_models_Attestation&#45;&gt;solutions_models_Solution</title>
<path fill="none" stroke="black" d="M249.74,-331.12C200.13,-322.28 138.82,-310.57 135,-306 128.27,-297.94 127.92,-286.19 129.3,-276.33"/>
<ellipse fill="black" stroke="black" cx="253.972" cy="-331.871" rx="4.00001" ry="4.00001"/>
<text text-anchor="middle" x="171.5" y="-298.8" font-family="Helvetica,sans-Serif" font-size="8.00">solution (attestation)</text>
</g>
<!-- attestation_models_RatingScaleItem -->
<g id="node11" class="node"><title>attestation_models_RatingScaleItem</title>
<polygon fill="palegoldenrod" stroke="palegoldenrod" points="314.5,-249.5 314.5,-266.5 429.5,-266.5 429.5,-249.5 314.5,-249.5"/>
<polygon fill="#698b22" stroke="#698b22" points="315,-249 315,-266 430,-266 430,-249 315,-249"/>
<text text-anchor="start" x="320" y="-255.633" font-family="Helvetica,sans-Serif" font-size="8.00"> &#160;&#160;&#160;&#160;&#160;</text>
<text text-anchor="start" x="334" y="-255.633" font-family="Helvetica Bold" font-size="8.00" fill="white"> &#160;&#160;&#160;&#160;&#160;RatingScaleItem &#160;&#160;&#160;&#160;&#160;</text>
</g>
<!-- attestation_models_Attestation&#45;&gt;attestation_models_RatingScaleItem -->
<g id="edge9" class="edge"><title>attestation_models_Attestation&#45;&gt;attestation_models_RatingScaleItem</title>
<path fill="none" stroke="black" d="M280.63,-317.51C274.58,-310.05 271.64,-301.77 277,-294 281.36,-287.69 293.73,-281.51 308.16,-276.1"/>
<ellipse fill="black" stroke="black" cx="283.58" cy="-320.646" rx="4.00002" ry="4.00002"/>
<text text-anchor="middle" x="319.5" y="-298.8" font-family="Helvetica,sans-Serif" font-size="8.00">final_grade (attestation)</text>
</g>
<!-- attestation_models_Attestation&#45;&gt;accounts_models_User -->
<g id="edge40" class="edge"><title>attestation_models_Attestation&#45;&gt;accounts_models_User</title>
<path fill="none" stroke="black" d="M276.36,-319.22C260.23,-307.79 242.02,-292.8 229,-276 209.37,-250.68 214.92,-238.35 200,-210 186.09,-183.56 167.47,-154.47 155.36,-136.23"/>
<ellipse fill="black" stroke="black" cx="279.829" cy="-321.616" rx="4.00002" ry="4.00002"/>
<text text-anchor="middle" x="263.5" y="-256.8" font-family="Helvetica,sans-Serif" font-size="8.00">author (attestation)</text>
</g>
<!-- attestation_models_RatingScaleItem&#45;&gt;attestation_models_RatingScale -->
<g id="edge13" class="edge"><title>attestation_models_RatingScaleItem&#45;&gt;attestation_models_RatingScale</title>
<path fill="none" stroke="black" d="M378.42,-232.11C380.83,-224.69 384,-216.78 388,-210 405.15,-180.98 432.69,-153.38 451.76,-136.11"/>
<ellipse fill="black" stroke="black" cx="377.231" cy="-236.069" rx="4.00001" ry="4.00001"/>
<text text-anchor="middle" x="428" y="-214.8" font-family="Helvetica,sans-Serif" font-size="8.00">scale (ratingscaleitem)</text>
</g>
<!-- attestation_models_AnnotatedSolutionFile -->
<g id="node13" class="node"><title>attestation_models_AnnotatedSolutionFile</title>
<polygon fill="palegoldenrod" stroke="palegoldenrod" points="373.5,-473.5 373.5,-490.5 514.5,-490.5 514.5,-473.5 373.5,-473.5"/>
<polygon fill="#698b22" stroke="#698b22" points="374,-473 374,-490 515,-490 515,-473 374,-473"/>
<text text-anchor="start" x="378.5" y="-479.633" font-family="Helvetica,sans-Serif" font-size="8.00"> &#160;&#160;&#160;&#160;&#160;</text>
<text text-anchor="start" x="392.5" y="-479.633" font-family="Helvetica Bold" font-size="8.00" fill="white"> &#160;&#160;&#160;&#160;&#160;AnnotatedSolutionFile &#160;&#160;&#160;&#160;&#160;</text>
</g>
<!-- attestation_models_AnnotatedSolutionFile&#45;&gt;solutions_models_SolutionFile -->
<g id="edge42" class="edge"><title>attestation_models_AnnotatedSolutionFile&#45;&gt;solutions_models_SolutionFile</title>
<path fill="none" stroke="black" d="M357.82,-464.12C357.54,-464.08 357.27,-464.04 357,-464 310.21,-457.2 183.38,-473.61 145,-446 116.89,-425.78 106.16,-384.21 102.2,-360.2"/>
<ellipse fill="black" stroke="black" cx="361.868" cy="-464.752" rx="4.00001" ry="4.00001"/>
<text text-anchor="middle" x="206.5" y="-438.8" font-family="Helvetica,sans-Serif" font-size="8.00">solution_file (annotatedsolutionfile)</text>
</g>
<!-- attestation_models_AnnotatedSolutionFile&#45;&gt;attestation_models_Attestation -->
<g id="edge11" class="edge"><title>attestation_models_AnnotatedSolutionFile&#45;&gt;attestation_models_Attestation</title>
<path fill="none" stroke="black" d="M358.09,-464.06C317.53,-455.5 277.73,-446.9 277,-446 256.48,-420.58 279.43,-382.72 296.94,-360.38"/>
<ellipse fill="black" stroke="black" cx="362.017" cy="-464.891" rx="4.00001" ry="4.00001"/>
<text text-anchor="middle" x="336" y="-438.8" font-family="Helvetica,sans-Serif" font-size="8.00">attestation (annotatedsolutionfile)</text>
</g>
<!-- attestation_models_RatingAspect -->
<g id="node15" class="node"><title>attestation_models_RatingAspect</title>
<polygon fill="palegoldenrod" stroke="palegoldenrod" points="545.5,-249.5 545.5,-266.5 650.5,-266.5 650.5,-249.5 545.5,-249.5"/>
<polygon fill="#698b22" stroke="#698b22" points="546,-249 546,-266 651,-266 651,-249 546,-249"/>
<text text-anchor="start" x="550.5" y="-255.633" font-family="Helvetica,sans-Serif" font-size="8.00"> &#160;&#160;&#160;&#160;&#160;</text>
<text text-anchor="start" x="564.5" y="-255.633" font-family="Helvetica Bold" font-size="8.00" fill="white"> &#160;&#160;&#160;&#160;&#160;RatingAspect &#160;&#160;&#160;&#160;&#160;</text>
</g>
<!-- attestation_models_Rating -->
<g id="node18" class="node"><title>attestation_models_Rating</title>
<polygon fill="palegoldenrod" stroke="palegoldenrod" points="573.5,-333.5 573.5,-350.5 650.5,-350.5 650.5,-333.5 573.5,-333.5"/>
<polygon fill="#698b22" stroke="#698b22" points="574,-333 574,-350 651,-350 651,-333 574,-333"/>
<text text-anchor="start" x="578.5" y="-339.633" font-family="Helvetica,sans-Serif" font-size="8.00"> &#160;&#160;&#160;&#160;&#160;</text>
<text text-anchor="start" x="592.5" y="-339.633" font-family="Helvetica Bold" font-size="8.00" fill="white"> &#160;&#160;&#160;&#160;&#160;Rating &#160;&#160;&#160;&#160;&#160;</text>
</g>
<!-- attestation_models_Rating&#45;&gt;tasks_models_Task -->
<g id="edge44" class="edge"><title>attestation_models_Rating&#45;&gt;tasks_models_Task</title>
<path fill="none" stroke="black" d="M642.9,-318.83C660.79,-305.41 682.98,-288.77 699.63,-276.28"/>
<ellipse fill="black" stroke="black" cx="639.231" cy="-321.581" rx="4.00002" ry="4.00002"/>
<text text-anchor="middle" x="696.5" y="-298.8" font-family="Helvetica,sans-Serif" font-size="8.00">task (rating)</text>
</g>
<!-- attestation_models_Rating&#45;&gt;attestation_models_RatingAspect -->
<g id="edge15" class="edge"><title>attestation_models_Rating&#45;&gt;attestation_models_RatingAspect</title>
<path fill="none" stroke="black" d="M601.51,-316.05C600.49,-312.71 599.61,-309.31 599,-306 597.2,-296.33 596.85,-285.38 596.99,-276.38"/>
<ellipse fill="black" stroke="black" cx="602.792" cy="-319.85" rx="4.00001" ry="4.00001"/>
<text text-anchor="middle" x="625" y="-298.8" font-family="Helvetica,sans-Serif" font-size="8.00">aspect (rating)</text>
</g>
<!-- attestation_models_Rating&#45;&gt;attestation_models_RatingScale -->
<g id="edge17" class="edge"><title>attestation_models_Rating&#45;&gt;attestation_models_RatingScale</title>
<path fill="none" stroke="black" d="M592.59,-317.98C584.33,-309.22 574.06,-300 563,-294 530.58,-276.42 505.88,-304.1 482,-276 464.47,-255.38 468.59,-172.93 471.42,-136.02"/>
<ellipse fill="black" stroke="black" cx="595.28" cy="-320.961" rx="4.00002" ry="4.00002"/>
<text text-anchor="middle" x="505.5" y="-256.8" font-family="Helvetica,sans-Serif" font-size="8.00">scale (rating)</text>
</g>
<!-- attestation_models_RatingResult -->
<g id="node21" class="node"><title>attestation_models_RatingResult</title>
<polygon fill="palegoldenrod" stroke="palegoldenrod" points="547.5,-473.5 547.5,-490.5 650.5,-490.5 650.5,-473.5 547.5,-473.5"/>
<polygon fill="#698b22" stroke="#698b22" points="548,-473 548,-490 651,-490 651,-473 548,-473"/>
<text text-anchor="start" x="553" y="-479.633" font-family="Helvetica,sans-Serif" font-size="8.00"> &#160;&#160;&#160;&#160;&#160;</text>
<text text-anchor="start" x="567" y="-479.633" font-family="Helvetica Bold" font-size="8.00" fill="white"> &#160;&#160;&#160;&#160;&#160;RatingResult &#160;&#160;&#160;&#160;&#160;</text>
</g>
<!-- attestation_models_RatingResult&#45;&gt;attestation_models_Attestation -->
<g id="edge19" class="edge"><title>attestation_models_RatingResult&#45;&gt;attestation_models_Attestation</title>
<path fill="none" stroke="black" d="M531.81,-464.17C531.54,-464.11 531.27,-464.06 531,-464 481.24,-453.48 463.36,-469 418,-446 377.72,-425.58 343.2,-384.08 325.55,-360.14"/>
<ellipse fill="black" stroke="black" cx="535.846" cy="-465.07" rx="4.00001" ry="4.00001"/>
<text text-anchor="middle" x="460.5" y="-438.8" font-family="Helvetica,sans-Serif" font-size="8.00">attestation (ratingresult)</text>
</g>
<!-- attestation_models_RatingResult&#45;&gt;attestation_models_RatingScaleItem -->
<g id="edge21" class="edge"><title>attestation_models_RatingResult&#45;&gt;attestation_models_RatingScaleItem</title>
<path fill="none" stroke="black" d="M555.12,-460.1C525.27,-445.1 491,-427.63 490,-426 466.38,-387.31 462.48,-360.03 490,-324 509.56,-298.39 576.48,-318.88 556,-294 555.51,-293.4 489.88,-280.66 437.15,-270.5"/>
<ellipse fill="black" stroke="black" cx="559.015" cy="-462.055" rx="4.00002" ry="4.00002"/>
<text text-anchor="middle" x="523.5" y="-340.8" font-family="Helvetica,sans-Serif" font-size="8.00">mark (ratingresult)</text>
</g>
<!-- attestation_models_RatingResult&#45;&gt;attestation_models_Rating -->
<g id="edge23" class="edge"><title>attestation_models_RatingResult&#45;&gt;attestation_models_Rating</title>
<path fill="none" stroke="black" d="M601.42,-455.89C604.01,-428.09 608.02,-384.81 610.29,-360.39"/>
<ellipse fill="black" stroke="black" cx="601.039" cy="-459.997" rx="4" ry="4"/>
<text text-anchor="middle" x="638.5" y="-438.8" font-family="Helvetica,sans-Serif" font-size="8.00">rating (ratingresult)</text>
</g>
<!-- attestation_models_Script -->
<g id="node25" class="node"><title>attestation_models_Script</title>
<polygon fill="palegoldenrod" stroke="palegoldenrod" points="265.5,-473.5 265.5,-490.5 340.5,-490.5 340.5,-473.5 265.5,-473.5"/>
<polygon fill="#698b22" stroke="#698b22" points="266,-473 266,-490 341,-490 341,-473 266,-473"/>
<text text-anchor="start" x="271" y="-479.633" font-family="Helvetica,sans-Serif" font-size="8.00"> &#160;&#160;&#160;&#160;&#160;</text>
<text text-anchor="start" x="285" y="-479.633" font-family="Helvetica Bold" font-size="8.00" fill="white"> &#160;&#160;&#160;&#160;&#160;Script &#160;&#160;&#160;&#160;&#160;</text>
</g>
<!-- accounts_models_Tutorial -->
<g id="node28" class="node"><title>accounts_models_Tutorial</title>
<polygon fill="palegoldenrod" stroke="palegoldenrod" points="83.5,-25.5 83.5,-42.5 164.5,-42.5 164.5,-25.5 83.5,-25.5"/>
<polygon fill="#698b22" stroke="#698b22" points="84,-25 84,-42 165,-42 165,-25 84,-25"/>
<text text-anchor="start" x="88.5" y="-31.6333" font-family="Helvetica,sans-Serif" font-size="8.00"> &#160;&#160;&#160;&#160;&#160;</text>
<text text-anchor="start" x="102.5" y="-31.6333" font-family="Helvetica Bold" font-size="8.00" fill="white"> &#160;&#160;&#160;&#160;&#160;Tutorial &#160;&#160;&#160;&#160;&#160;</text>
</g>
<!-- accounts_models_User&#45;&gt;accounts_models_Tutorial -->
<g id="edge26" class="edge"><title>accounts_models_User&#45;&gt;accounts_models_Tutorial</title>
<path fill="none" stroke="black" d="M93.508,-100.85C85.733,-95.966 78.719,-89.785 74,-82 67.201,-70.784 75.256,-60.417 86.749,-52.21"/>
<ellipse fill="black" stroke="black" cx="97.3351" cy="-103.006" rx="4.00002" ry="4.00002"/>
<text text-anchor="middle" x="98.5" y="-74.8" font-family="Helvetica,sans-Serif" font-size="8.00">tutorial (user)</text>
</g>
<!-- accounts_models_Tutorial&#45;&gt;accounts_models_User -->
<g id="edge28" class="edge"><title>accounts_models_Tutorial&#45;&gt;accounts_models_User</title>
<path fill="none" stroke="black" d="M129.93,-60.225C132.2,-70.255 134.79,-81.689 137.06,-91.724"/>
<ellipse fill="black" stroke="black" cx="128.994" cy="-56.0922" rx="4.00001" ry="4.00001"/>
<ellipse fill="black" stroke="black" cx="137.998" cy="-95.8715" rx="4.00001" ry="4.00001"/>
<text text-anchor="middle" x="178.5" y="-74.8" font-family="Helvetica,sans-Serif" font-size="8.00">tutors (tutored_tutorials)</text>
</g>
</g>
</svg>
