<?xml version="1.0" encoding="UTF-8" standalone="no"?>
<!DOCTYPE svg PUBLIC "-//W3C//DTD SVG 1.1//EN"
 "http://www.w3.org/Graphics/SVG/1.1/DTD/svg11.dtd">
<!-- Generated by graphviz version 2.27.20110109.0545 (20110109.0545)
 -->
<!-- Title: name Pages: 1 -->
<svg width="1088pt" height="574pt"
 viewBox="0.00 0.00 1088.00 574.00" xmlns="http://www.w3.org/2000/svg" xmlns:xlink="http://www.w3.org/1999/xlink">
<g id="graph1" class="graph" transform="scale(1 1) rotate(0) translate(4 570)">
<title>name</title>
<polygon fill="white" stroke="white" points="-4,5 -4,-570 1085,-570 1085,5 -4,5"/>
<g id="graph2" class="cluster"><title>cluster_praktomat_tasks_models</title>
<polyline fill="none" stroke="#698b22" points="20,-228 135,-228 "/>
<path fill="none" stroke="#698b22" d="M135,-228C141,-228 147,-234 147,-240"/>
<polyline fill="none" stroke="#698b22" points="147,-240 147,-408 "/>
<path fill="none" stroke="#698b22" d="M147,-408C147,-414 141,-420 135,-420"/>
<polyline fill="none" stroke="#698b22" points="135,-420 20,-420 "/>
<path fill="none" stroke="#698b22" d="M20,-420C14,-420 8,-414 8,-408"/>
<polyline fill="none" stroke="#698b22" points="8,-408 8,-240 "/>
<path fill="none" stroke="#698b22" d="M8,-240C8,-234 14,-228 20,-228"/>
<text text-anchor="start" x="21.5" y="-402.2" font-family="Helvetica Bold" font-size="12.00">praktomat.tasks</text>
</g>
<g id="graph3" class="cluster"><title>cluster_praktomat_solutions_models</title>
<polyline fill="none" stroke="#698b22" points="581,-228 724,-228 "/>
<path fill="none" stroke="#698b22" d="M724,-228C730,-228 736,-234 736,-240"/>
<polyline fill="none" stroke="#698b22" points="736,-240 736,-408 "/>
<path fill="none" stroke="#698b22" d="M736,-408C736,-414 730,-420 724,-420"/>
<polyline fill="none" stroke="#698b22" points="724,-420 581,-420 "/>
<path fill="none" stroke="#698b22" d="M581,-420C575,-420 569,-414 569,-408"/>
<polyline fill="none" stroke="#698b22" points="569,-408 569,-240 "/>
<path fill="none" stroke="#698b22" d="M569,-240C569,-234 575,-228 581,-228"/>
<text text-anchor="start" x="582.5" y="-402.2" font-family="Helvetica Bold" font-size="12.00">praktomat.solutions</text>
</g>
<g id="graph4" class="cluster"><title>cluster_praktomat_attestation_models</title>
<polyline fill="none" stroke="#698b22" points="167,-90 549,-90 "/>
<path fill="none" stroke="#698b22" d="M549,-90C555,-90 561,-96 561,-102"/>
<polyline fill="none" stroke="#698b22" points="561,-102 561,-546 "/>
<path fill="none" stroke="#698b22" d="M561,-546C561,-552 555,-558 549,-558"/>
<polyline fill="none" stroke="#698b22" points="549,-558 167,-558 "/>
<path fill="none" stroke="#698b22" d="M167,-558C161,-558 155,-552 155,-546"/>
<polyline fill="none" stroke="#698b22" points="155,-546 155,-102 "/>
<path fill="none" stroke="#698b22" d="M155,-102C155,-96 161,-90 167,-90"/>
<text text-anchor="start" x="282" y="-540.2" font-family="Helvetica Bold" font-size="12.00">praktomat.attestation</text>
</g>
<g id="graph5" class="cluster"><title>cluster_praktomat_accounts_models</title>
<polyline fill="none" stroke="#698b22" points="581,-8 722,-8 "/>
<path fill="none" stroke="#698b22" d="M722,-8C728,-8 734,-14 734,-20"/>
<polyline fill="none" stroke="#698b22" points="734,-20 734,-188 "/>
<path fill="none" stroke="#698b22" d="M734,-188C734,-194 728,-200 722,-200"/>
<polyline fill="none" stroke="#698b22" points="722,-200 581,-200 "/>
<path fill="none" stroke="#698b22" d="M581,-200C575,-200 569,-194 569,-188"/>
<polyline fill="none" stroke="#698b22" points="569,-188 569,-20 "/>
<path fill="none" stroke="#698b22" d="M569,-20C569,-14 575,-8 581,-8"/>
<text text-anchor="start" x="582.5" y="-182.2" font-family="Helvetica Bold" font-size="12.00">praktomat.accounts</text>
</g>
<!-- praktomat_tasks_models_Task -->
<g id="node2" class="node"><title>praktomat_tasks_models_Task</title>
<polygon fill="palegoldenrod" stroke="palegoldenrod" points="97.5,-245.5 97.5,-262.5 126.5,-262.5 126.5,-245.5 97.5,-245.5"/>
<polygon fill="#698b22" stroke="#698b22" points="98,-245 98,-262 127,-262 127,-245 98,-245"/>
<text text-anchor="start" x="103" y="-251.633" font-family="Helvetica Bold" font-size="8.00" fill="white">Task</text>
</g>
<!-- praktomat_solutions_models_Solution -->
<g id="node6" class="node"><title>praktomat_solutions_models_Solution</title>
<polygon fill="palegoldenrod" stroke="palegoldenrod" points="584.5,-245.5 584.5,-262.5 637.5,-262.5 637.5,-245.5 584.5,-245.5"/>
<polygon fill="#698b22" stroke="#698b22" points="585,-245 585,-262 638,-262 638,-245 585,-245"/>
<text text-anchor="start" x="590" y="-251.633" font-family="Helvetica Bold" font-size="8.00" fill="white">Solution</text>
</g>
<!-- praktomat_tasks_models_Task&#45;&gt;praktomat_solutions_models_Solution -->
<g id="edge30" class="edge"><title>praktomat_tasks_models_Task&#45;&gt;praktomat_solutions_models_Solution</title>
<path fill="none" stroke="black" d="M139.28,-267.9C143.15,-269.48 147.12,-270.91 151,-272 208.23,-288.06 358.24,-299.59 417.5,-295 483.65,-289.87 500.95,-289.3 565,-272 568.89,-270.95 572.9,-269.68 576.86,-268.3"/>
<text text-anchor="middle" x="384" y="-292.8" font-family="Helvetica,sans-Serif" font-size="8.00">model_solution</text>
</g>
<!-- praktomat_attestation_models_RatingScale -->
<g id="node16" class="node"><title>praktomat_attestation_models_RatingScale</title>
<polygon fill="palegoldenrod" stroke="palegoldenrod" points="174.5,-107.5 174.5,-124.5 243.5,-124.5 243.5,-107.5 174.5,-107.5"/>
<polygon fill="#698b22" stroke="#698b22" points="175,-107 175,-124 244,-124 244,-107 175,-107"/>
<text text-anchor="start" x="180" y="-113.633" font-family="Helvetica Bold" font-size="8.00" fill="white">RatingScale</text>
</g>
<!-- praktomat_tasks_models_Task&#45;&gt;praktomat_attestation_models_RatingScale -->
<g id="edge32" class="edge"><title>praktomat_tasks_models_Task&#45;&gt;praktomat_attestation_models_RatingScale</title>
<path fill="none" stroke="black" d="M100.32,-235.64C96.369,-227.03 93.881,-216.76 98,-208 111.9,-178.42 140.51,-155.07 165.2,-139.3"/>
<polygon fill="black" stroke="black" points="167.061,-142.264 173.74,-134.04 163.39,-136.304 167.061,-142.264"/>
<text text-anchor="middle" x="151" y="-210.8" font-family="Helvetica,sans-Serif" font-size="8.00">final_grade_rating_scale</text>
</g>
<!-- praktomat_tasks_models_MediaFile -->
<g id="node3" class="node"><title>praktomat_tasks_models_MediaFile</title>
<polygon fill="palegoldenrod" stroke="palegoldenrod" points="72.5,-327.5 72.5,-344.5 127.5,-344.5 127.5,-327.5 72.5,-327.5"/>
<polygon fill="#698b22" stroke="#698b22" points="73,-327 73,-344 128,-344 128,-327 73,-327"/>
<text text-anchor="start" x="77.5" y="-333.633" font-family="Helvetica Bold" font-size="8.00" fill="white">MediaFile</text>
</g>
<!-- praktomat_tasks_models_MediaFile&#45;&gt;praktomat_tasks_models_Task -->
<g id="edge3" class="edge"><title>praktomat_tasks_models_MediaFile&#45;&gt;praktomat_tasks_models_Task</title>
<path fill="none" stroke="black" d="M102.66,-317.8C104.19,-307.4 106.13,-294.12 107.85,-282.38"/>
<polygon fill="black" stroke="black" points="111.362,-282.55 109.34,-272.15 104.435,-281.541 111.362,-282.55"/>
<text text-anchor="middle" x="116.5" y="-292.8" font-family="Helvetica,sans-Serif" font-size="8.00">task</text>
</g>
<!-- praktomat_solutions_models_Solution&#45;&gt;praktomat_tasks_models_Task -->
<g id="edge34" class="edge"><title>praktomat_solutions_models_Solution&#45;&gt;praktomat_tasks_models_Task</title>
<path fill="none" stroke="black" d="M576.83,-268.19C572.88,-269.58 568.88,-270.89 565,-272 511.32,-287.35 497.1,-289.87 441.5,-295 377.02,-300.95 213.61,-288.55 151,-272 150.27,-271.81 149.54,-271.6 148.8,-271.38"/>
<polygon fill="black" stroke="black" points="149.845,-268.037 139.25,-268.01 147.515,-274.638 149.845,-268.037"/>
<text text-anchor="middle" x="432" y="-292.8" font-family="Helvetica,sans-Serif" font-size="8.00">task</text>
</g>
<!-- praktomat_accounts_models_User -->
<g id="node27" class="node"><title>praktomat_accounts_models_User</title>
<polygon fill="palegoldenrod" stroke="palegoldenrod" points="681.5,-107.5 681.5,-124.5 714.5,-124.5 714.5,-107.5 681.5,-107.5"/>
<polygon fill="#698b22" stroke="#698b22" points="682,-107 682,-124 715,-124 715,-107 682,-107"/>
<text text-anchor="start" x="687" y="-113.633" font-family="Helvetica Bold" font-size="8.00" fill="white">User</text>
</g>
<!-- praktomat_solutions_models_Solution&#45;&gt;praktomat_accounts_models_User -->
<g id="edge36" class="edge"><title>praktomat_solutions_models_Solution&#45;&gt;praktomat_accounts_models_User</title>
<path fill="none" stroke="black" d="M622.37,-235.96C637.35,-212.2 663.82,-170.22 681.13,-142.76"/>
<polygon fill="black" stroke="black" points="684.249,-144.376 686.62,-134.05 678.327,-140.643 684.249,-144.376"/>
<text text-anchor="middle" x="655" y="-210.8" font-family="Helvetica,sans-Serif" font-size="8.00">author</text>
</g>
<!-- praktomat_solutions_models_SolutionFile -->
<g id="node7" class="node"><title>praktomat_solutions_models_SolutionFile</title>
<polygon fill="palegoldenrod" stroke="palegoldenrod" points="586.5,-327.5 586.5,-344.5 655.5,-344.5 655.5,-327.5 586.5,-327.5"/>
<polygon fill="#698b22" stroke="#698b22" points="587,-327 587,-344 656,-344 656,-327 587,-327"/>
<text text-anchor="start" x="591.5" y="-333.633" font-family="Helvetica Bold" font-size="8.00" fill="white">SolutionFile</text>
</g>
<!-- praktomat_solutions_models_SolutionFile&#45;&gt;praktomat_solutions_models_Solution -->
<g id="edge6" class="edge"><title>praktomat_solutions_models_SolutionFile&#45;&gt;praktomat_solutions_models_Solution</title>
<path fill="none" stroke="black" d="M618.78,-317.8C617.51,-307.4 615.89,-294.12 614.46,-282.38"/>
<polygon fill="black" stroke="black" points="617.897,-281.652 613.21,-272.15 610.949,-282.501 617.897,-281.652"/>
<text text-anchor="middle" x="635.5" y="-292.8" font-family="Helvetica,sans-Serif" font-size="8.00">solution</text>
</g>
<!-- praktomat_attestation_models_Attestation -->
<g id="node10" class="node"><title>praktomat_attestation_models_Attestation</title>
<polygon fill="palegoldenrod" stroke="palegoldenrod" points="451.5,-327.5 451.5,-344.5 518.5,-344.5 518.5,-327.5 451.5,-327.5"/>
<polygon fill="#698b22" stroke="#698b22" points="452,-327 452,-344 519,-344 519,-327 452,-327"/>
<text text-anchor="start" x="456.5" y="-333.633" font-family="Helvetica Bold" font-size="8.00" fill="white">Attestation</text>
</g>
<!-- praktomat_attestation_models_Attestation&#45;&gt;praktomat_solutions_models_Solution -->
<g id="edge38" class="edge"><title>praktomat_attestation_models_Attestation&#45;&gt;praktomat_solutions_models_Solution</title>
<path fill="none" stroke="black" d="M512.96,-317.8C531.15,-305.96 555.05,-290.41 574.7,-277.62"/>
<polygon fill="black" stroke="black" points="576.635,-280.536 583.11,-272.15 572.819,-274.668 576.635,-280.536"/>
<text text-anchor="middle" x="574.5" y="-292.8" font-family="Helvetica,sans-Serif" font-size="8.00">solution</text>
</g>
<!-- praktomat_attestation_models_RatingScaleItem -->
<g id="node11" class="node"><title>praktomat_attestation_models_RatingScaleItem</title>
<polygon fill="palegoldenrod" stroke="palegoldenrod" points="298.5,-245.5 298.5,-262.5 389.5,-262.5 389.5,-245.5 298.5,-245.5"/>
<polygon fill="#698b22" stroke="#698b22" points="299,-245 299,-262 390,-262 390,-245 299,-245"/>
<text text-anchor="start" x="304" y="-251.633" font-family="Helvetica Bold" font-size="8.00" fill="white">RatingScaleItem</text>
</g>
<!-- praktomat_attestation_models_Attestation&#45;&gt;praktomat_attestation_models_RatingScaleItem -->
<g id="edge9" class="edge"><title>praktomat_attestation_models_Attestation&#45;&gt;praktomat_attestation_models_RatingScaleItem</title>
<path fill="none" stroke="black" d="M471.9,-317.87C464.35,-308.48 454.14,-297.46 443,-290 431.98,-282.62 419.26,-276.54 406.68,-271.6"/>
<polygon fill="black" stroke="black" points="407.723,-268.254 397.13,-268.05 405.284,-274.815 407.723,-268.254"/>
<text text-anchor="middle" x="479.5" y="-292.8" font-family="Helvetica,sans-Serif" font-size="8.00">final_grade</text>
</g>
<!-- praktomat_attestation_models_Attestation&#45;&gt;praktomat_accounts_models_User -->
<g id="edge40" class="edge"><title>praktomat_attestation_models_Attestation&#45;&gt;praktomat_accounts_models_User</title>
<path fill="none" stroke="black" d="M497.71,-317.75C501.29,-312.19 505.01,-305.97 508,-300 523.28,-269.43 513.94,-254.92 535,-228 553.12,-204.83 619.98,-162.52 662.24,-137.05"/>
<polygon fill="black" stroke="black" points="664.072,-140.033 670.85,-131.89 660.473,-134.028 664.072,-140.033"/>
<text text-anchor="middle" x="550" y="-251.8" font-family="Helvetica,sans-Serif" font-size="8.00">author</text>
</g>
<!-- praktomat_attestation_models_RatingScaleItem&#45;&gt;praktomat_attestation_models_RatingScale -->
<g id="edge13" class="edge"><title>praktomat_attestation_models_RatingScaleItem&#45;&gt;praktomat_attestation_models_RatingScale</title>
<path fill="none" stroke="black" d="M326.35,-235.96C302.7,-211.78 260.61,-168.75 233.79,-141.34"/>
<polygon fill="black" stroke="black" points="236.148,-138.745 226.65,-134.05 231.147,-143.643 236.148,-138.745"/>
<text text-anchor="middle" x="320" y="-210.8" font-family="Helvetica,sans-Serif" font-size="8.00">scale</text>
</g>
<!-- praktomat_attestation_models_AnnotatedSolutionFile -->
<g id="node13" class="node"><title>praktomat_attestation_models_AnnotatedSolutionFile</title>
<polygon fill="palegoldenrod" stroke="palegoldenrod" points="424.5,-465.5 424.5,-482.5 545.5,-482.5 545.5,-465.5 424.5,-465.5"/>
<polygon fill="#698b22" stroke="#698b22" points="425,-465 425,-482 546,-482 546,-465 425,-465"/>
<text text-anchor="start" x="429.5" y="-471.633" font-family="Helvetica Bold" font-size="8.00" fill="white">AnnotatedSolutionFile</text>
</g>
<!-- praktomat_attestation_models_AnnotatedSolutionFile&#45;&gt;praktomat_solutions_models_SolutionFile -->
<g id="edge42" class="edge"><title>praktomat_attestation_models_AnnotatedSolutionFile&#45;&gt;praktomat_solutions_models_SolutionFile</title>
<path fill="none" stroke="black" d="M512.26,-455.96C520.84,-450.25 530.33,-443.89 539,-438 550.63,-430.1 555.15,-430.02 565,-420 581.58,-403.12 596.25,-380.69 606.41,-363.25"/>
<polygon fill="black" stroke="black" points="609.687,-364.566 611.57,-354.14 603.596,-361.116 609.687,-364.566"/>
<text text-anchor="middle" x="583.5" y="-430.8" font-family="Helvetica,sans-Serif" font-size="8.00">solution_file</text>
</g>
<!-- praktomat_attestation_models_AnnotatedSolutionFile&#45;&gt;praktomat_attestation_models_Attestation -->
<g id="edge11" class="edge"><title>praktomat_attestation_models_AnnotatedSolutionFile&#45;&gt;praktomat_attestation_models_Attestation</title>
<path fill="none" stroke="black" d="M485,-455.96C485,-432.61 485,-391.67 485,-364.2"/>
<polygon fill="black" stroke="black" points="488.5,-364.05 485,-354.05 481.5,-364.05 488.5,-364.05"/>
<text text-anchor="middle" x="510" y="-430.8" font-family="Helvetica,sans-Serif" font-size="8.00">attestation</text>
</g>
<!-- praktomat_attestation_models_RatingAspect -->
<g id="node15" class="node"><title>praktomat_attestation_models_RatingAspect</title>
<polygon fill="palegoldenrod" stroke="palegoldenrod" points="235.5,-327.5 235.5,-344.5 312.5,-344.5 312.5,-327.5 235.5,-327.5"/>
<polygon fill="#698b22" stroke="#698b22" points="236,-327 236,-344 313,-344 313,-327 236,-327"/>
<text text-anchor="start" x="241" y="-333.633" font-family="Helvetica Bold" font-size="8.00" fill="white">RatingAspect</text>
</g>
<!-- praktomat_attestation_models_Rating -->
<g id="node18" class="node"><title>praktomat_attestation_models_Rating</title>
<polygon fill="palegoldenrod" stroke="palegoldenrod" points="244.5,-465.5 244.5,-482.5 285.5,-482.5 285.5,-465.5 244.5,-465.5"/>
<polygon fill="#698b22" stroke="#698b22" points="245,-465 245,-482 286,-482 286,-465 245,-465"/>
<text text-anchor="start" x="249.5" y="-471.633" font-family="Helvetica Bold" font-size="8.00" fill="white">Rating</text>
</g>
<!-- praktomat_attestation_models_Rating&#45;&gt;praktomat_tasks_models_Task -->
<g id="edge44" class="edge"><title>praktomat_attestation_models_Rating&#45;&gt;praktomat_tasks_models_Task</title>
<path fill="none" stroke="black" d="M236.82,-459.14C226.2,-453.08 214.21,-445.7 204,-438 194.71,-431 191.54,-429.62 185,-420 157.52,-379.6 164.05,-362.55 144,-318 138.46,-305.7 131.87,-292.32 126.1,-280.99"/>
<polygon fill="black" stroke="black" points="129.178,-279.321 121.5,-272.02 122.949,-282.515 129.178,-279.321"/>
<text text-anchor="middle" x="194.5" y="-333.8" font-family="Helvetica,sans-Serif" font-size="8.00">task</text>
</g>
<!-- praktomat_attestation_models_Rating&#45;&gt;praktomat_attestation_models_RatingAspect -->
<g id="edge15" class="edge"><title>praktomat_attestation_models_Rating&#45;&gt;praktomat_attestation_models_RatingAspect</title>
<path fill="none" stroke="black" d="M265.13,-455.63C265.25,-447.21 265.51,-437.09 266,-428 267.16,-406.69 269.27,-382.66 271.04,-364.51"/>
<polygon fill="black" stroke="black" points="274.549,-364.598 272.06,-354.3 267.583,-363.903 274.549,-364.598"/>
<text text-anchor="middle" x="281.5" y="-430.8" font-family="Helvetica,sans-Serif" font-size="8.00">aspect</text>
</g>
<!-- praktomat_attestation_models_Rating&#45;&gt;praktomat_attestation_models_RatingScale -->
<g id="edge17" class="edge"><title>praktomat_attestation_models_Rating&#45;&gt;praktomat_attestation_models_RatingScale</title>
<path fill="none" stroke="black" d="M243.88,-455.66C234.43,-446.08 224.24,-433.55 219,-420 199.73,-370.2 204.67,-209.36 207.59,-144"/>
<polygon fill="black" stroke="black" points="211.086,-144.16 208.05,-134.01 204.094,-143.838 211.086,-144.16"/>
<text text-anchor="middle" x="218" y="-292.8" font-family="Helvetica,sans-Serif" font-size="8.00">scale</text>
</g>
<!-- praktomat_attestation_models_RatingResult -->
<g id="node21" class="node"><title>praktomat_attestation_models_RatingResult</title>
<polygon fill="palegoldenrod" stroke="palegoldenrod" points="318.5,-465.5 318.5,-482.5 391.5,-482.5 391.5,-465.5 318.5,-465.5"/>
<polygon fill="#698b22" stroke="#698b22" points="319,-465 319,-482 392,-482 392,-465 319,-465"/>
<text text-anchor="start" x="323.5" y="-471.633" font-family="Helvetica Bold" font-size="8.00" fill="white">RatingResult</text>
</g>
<!-- praktomat_attestation_models_RatingResult&#45;&gt;praktomat_attestation_models_Attestation -->
<g id="edge19" class="edge"><title>praktomat_attestation_models_RatingResult&#45;&gt;praktomat_attestation_models_Attestation</title>
<path fill="none" stroke="black" d="M372,-455.96C394.77,-431.78 435.3,-388.75 461.13,-361.34"/>
<polygon fill="black" stroke="black" points="463.689,-363.728 468,-354.05 458.594,-358.927 463.689,-363.728"/>
<text text-anchor="middle" x="423" y="-430.8" font-family="Helvetica,sans-Serif" font-size="8.00">attestation</text>
</g>
<!-- praktomat_attestation_models_RatingResult&#45;&gt;praktomat_attestation_models_RatingScaleItem -->
<g id="edge23" class="edge"><title>praktomat_attestation_models_RatingResult&#45;&gt;praktomat_attestation_models_RatingScaleItem</title>
<path fill="none" stroke="black" d="M354.1,-456C352.19,-417.8 347.72,-328.41 345.42,-282.43"/>
<polygon fill="black" stroke="black" points="348.906,-282.062 344.91,-272.25 341.915,-282.413 348.906,-282.062"/>
<text text-anchor="middle" x="364" y="-333.8" font-family="Helvetica,sans-Serif" font-size="8.00">mark</text>
</g>
<!-- praktomat_attestation_models_RatingResult&#45;&gt;praktomat_attestation_models_RatingAspect -->
<g id="edge21" class="edge"><title>praktomat_attestation_models_RatingResult&#45;&gt;praktomat_attestation_models_RatingAspect</title>
<path fill="none" stroke="black" d="M334.78,-455.66C329.55,-450.29 324.22,-444.2 320,-438 304.15,-414.71 291.5,-385.07 283.5,-363.75"/>
<polygon fill="black" stroke="black" points="286.772,-362.507 280.06,-354.31 280.195,-364.904 286.772,-362.507"/>
<text text-anchor="middle" x="335.5" y="-430.8" font-family="Helvetica,sans-Serif" font-size="8.00">aspect</text>
</g>
<!-- praktomat_attestation_models_Script -->
<g id="node25" class="node"><title>praktomat_attestation_models_Script</title>
<polygon fill="palegoldenrod" stroke="palegoldenrod" points="170.5,-465.5 170.5,-482.5 211.5,-482.5 211.5,-465.5 170.5,-465.5"/>
<polygon fill="#698b22" stroke="#698b22" points="171,-465 171,-482 212,-482 212,-465 171,-465"/>
<text text-anchor="start" x="176" y="-471.633" font-family="Helvetica Bold" font-size="8.00" fill="white">Script</text>
</g>
<!-- praktomat_accounts_models_Tutorial -->
<g id="node28" class="node"><title>praktomat_accounts_models_Tutorial</title>
<polygon fill="palegoldenrod" stroke="palegoldenrod" points="642.5,-25.5 642.5,-42.5 691.5,-42.5 691.5,-25.5 642.5,-25.5"/>
<polygon fill="#698b22" stroke="#698b22" points="643,-25 643,-42 692,-42 692,-25 643,-25"/>
<text text-anchor="start" x="647.5" y="-31.6333" font-family="Helvetica Bold" font-size="8.00" fill="white">Tutorial</text>
</g>
<!-- praktomat_accounts_models_User&#45;&gt;praktomat_accounts_models_Tutorial -->
<g id="edge26" class="edge"><title>praktomat_accounts_models_User&#45;&gt;praktomat_accounts_models_Tutorial</title>
<path fill="none" stroke="black" d="M670.85,-105.16C660.16,-99.391 649.02,-91.143 643,-80 639.72,-73.931 640.55,-67.376 643.33,-61.168"/>
<polygon fill="black" stroke="black" points="646.429,-62.8044 648.53,-52.42 640.412,-59.2276 646.429,-62.8044"/>
<text text-anchor="middle" x="659.5" y="-72.8" font-family="Helvetica,sans-Serif" font-size="8.00">tutorial</text>
</g>
<!-- django_contrib_auth_models_User -->
<g id="node39" class="node"><title>django_contrib_auth_models_User</title>
<text text-anchor="middle" x="825" y="-31.8" font-family="Helvetica,sans-Serif" font-size="8.00">django_contrib_auth_models_User</text>
</g>
<!-- praktomat_accounts_models_User&#45;&gt;django_contrib_auth_models_User -->
<g id="edge46" class="edge"><title>praktomat_accounts_models_User&#45;&gt;django_contrib_auth_models_User</title>
<path fill="none" stroke="black" d="M725.24,-98.409C746.38,-84.762 775.58,-65.911 796.92,-52.129"/>
<text text-anchor="middle" x="788.5" y="-72.8" font-family="Helvetica,sans-Serif" font-size="8.00">user_ptr</text>
</g>
<!-- django_contrib_auth_models_Group -->
<g id="node41" class="node"><title>django_contrib_auth_models_Group</title>
<polygon fill="palegoldenrod" stroke="palegoldenrod" points="933.5,-25.5 933.5,-42.5 974.5,-42.5 974.5,-25.5 933.5,-25.5"/>
<polygon fill="#698b22" stroke="#698b22" points="934,-25 934,-42 975,-42 975,-25 934,-25"/>
<text text-anchor="start" x="939" y="-31.6333" font-family="Helvetica Bold" font-size="8.00" fill="white">Group</text>
</g>
<!-- praktomat_accounts_models_User&#45;&gt;django_contrib_auth_models_Group -->
<g id="edge48" class="edge"><title>praktomat_accounts_models_User&#45;&gt;django_contrib_auth_models_Group</title>
<path fill="none" stroke="black" d="M725.11,-109.64C765.26,-99.897 842.86,-79.783 916.51,-51.881"/>
<polygon fill="black" stroke="black" points="917.861,-55.1116 925.94,-48.258 915.35,-48.5773 917.861,-55.1116"/>
<text text-anchor="middle" x="878.5" y="-72.8" font-family="Helvetica,sans-Serif" font-size="8.00">groups</text>
</g>
<!-- django_contrib_auth_models_Permission -->
<g id="node43" class="node"><title>django_contrib_auth_models_Permission</title>
<polygon fill="palegoldenrod" stroke="palegoldenrod" points="1007.5,-25.5 1007.5,-42.5 1072.5,-42.5 1072.5,-25.5 1007.5,-25.5"/>
<polygon fill="#698b22" stroke="#698b22" points="1008,-25 1008,-42 1073,-42 1073,-25 1008,-25"/>
<text text-anchor="start" x="1012.5" y="-31.6333" font-family="Helvetica Bold" font-size="8.00" fill="white">Permission</text>
</g>
<!-- praktomat_accounts_models_User&#45;&gt;django_contrib_auth_models_Permission -->
<g id="edge50" class="edge"><title>praktomat_accounts_models_User&#45;&gt;django_contrib_auth_models_Permission</title>
<path fill="none" stroke="black" d="M725.05,-112.14C763.68,-106.39 836.76,-94.68 898,-80 937.11,-70.626 948.53,-66.281 990.26,-52.194"/>
<polygon fill="black" stroke="black" points="991.598,-55.4365 999.96,-48.93 989.366,-48.8021 991.598,-55.4365"/>
<text text-anchor="middle" x="974" y="-72.8" font-family="Helvetica,sans-Serif" font-size="8.00">user_permissions</text>
</g>
<!-- praktomat_accounts_models_Tutorial&#45;&gt;praktomat_accounts_models_User -->
<g id="edge28" class="edge"><title>praktomat_accounts_models_Tutorial&#45;&gt;praktomat_accounts_models_User</title>
<path fill="none" stroke="black" d="M671.29,-52.171C673.53,-60.737 676.52,-71.023 680,-80 681.12,-82.904 682.4,-85.887 683.75,-88.835"/>
<polygon fill="black" stroke="black" points="680.666,-90.4977 688.16,-97.987 686.972,-87.459 680.666,-90.4977"/>
<text text-anchor="middle" x="694" y="-72.8" font-family="Helvetica,sans-Serif" font-size="8.00">tutors</text>
</g>
</g>
</svg>
