<?xml version="1.0" encoding="UTF-8" standalone="no"?>
<!DOCTYPE svg PUBLIC "-//W3C//DTD SVG 1.1//EN"
 "http://www.w3.org/Graphics/SVG/1.1/DTD/svg11.dtd">
<!-- Generated by graphviz version 2.27.20110109.0545 (20110109.0545)
 -->
<!-- Title: name Pages: 1 -->
<svg width="144pt" height="308pt"
 viewBox="0.00 0.00 144.00 308.00" xmlns="http://www.w3.org/2000/svg" xmlns:xlink="http://www.w3.org/1999/xlink">
<g id="graph1" class="graph" transform="scale(1 1) rotate(0) translate(4 304)">
<title>name</title>
<polygon fill="white" stroke="white" points="-4,5 -4,-304 141,-304 141,5 -4,5"/>
<!-- praktomat_solutions_models_Solution -->
<g id="node1" class="node"><title>praktomat_solutions_models_Solution</title>
<polygon fill="palegoldenrod" stroke="palegoldenrod" points="7.5,-86.5 7.5,-187.5 128.5,-187.5 128.5,-86.5 7.5,-86.5"/>
<polygon fill="#698b22" stroke="#698b22" points="8,-170 8,-187 129,-187 129,-170 8,-170"/>
<text text-anchor="start" x="51.5" y="-176.633" font-family="Helvetica Bold" font-size="8.00" fill="white">Solution</text>
<text text-anchor="start" x="10" y="-162.133" font-family="Helvetica Bold" font-size="8.00" fill="#7b7b7b">id</text>
<text text-anchor="start" x="70" y="-162.133" font-family="Helvetica Bold" font-size="8.00" fill="#7b7b7b">AutoField</text>
<text text-anchor="start" x="10" y="-150.133" font-family="Helvetica Bold" font-size="8.00">number</text>
<text text-anchor="start" x="70" y="-150.133" font-family="Helvetica Bold" font-size="8.00">IntegerField</text>
<text text-anchor="start" x="10" y="-138.133" font-family="Helvetica Bold" font-size="8.00">task</text>
<text text-anchor="start" x="70" y="-138.133" font-family="Helvetica Bold" font-size="8.00">ForeignKey</text>
<text text-anchor="start" x="10" y="-126.133" font-family="Helvetica Bold" font-size="8.00">author</text>
<text text-anchor="start" x="70" y="-126.133" font-family="Helvetica Bold" font-size="8.00">ForeignKey</text>
<text text-anchor="start" x="10" y="-114.133" font-family="Helvetica Bold" font-size="8.00" fill="#7b7b7b">creation_date</text>
<text text-anchor="start" x="70" y="-114.133" font-family="Helvetica Bold" font-size="8.00" fill="#7b7b7b">DateTimeField</text>
<text text-anchor="start" x="10" y="-102.133" font-family="Helvetica Bold" font-size="8.00" fill="#7b7b7b">accepted</text>
<text text-anchor="start" x="70" y="-102.133" font-family="Helvetica Bold" font-size="8.00" fill="#7b7b7b">BooleanField</text>
<text text-anchor="start" x="10" y="-90.1333" font-family="Helvetica Bold" font-size="8.00" fill="#7b7b7b">warnings</text>
<text text-anchor="start" x="70" y="-90.1333" font-family="Helvetica Bold" font-size="8.00" fill="#7b7b7b">BooleanField</text>
</g>
<!-- praktomat_accounts_models_User -->
<g id="node2" class="node"><title>praktomat_accounts_models_User</title>
<polygon fill="palegoldenrod" stroke="palegoldenrod" points="87.5,-9.5 87.5,-26.5 120.5,-26.5 120.5,-9.5 87.5,-9.5"/>
<polygon fill="#698b22" stroke="#698b22" points="88,-9 88,-26 121,-26 121,-9 88,-9"/>
<text text-anchor="start" x="93" y="-15.6333" font-family="Helvetica Bold" font-size="8.00" fill="white">User</text>
</g>
<!-- praktomat_solutions_models_Solution&#45;&gt;praktomat_accounts_models_User -->
<g id="edge2" class="edge"><title>praktomat_solutions_models_Solution&#45;&gt;praktomat_accounts_models_User</title>
<path fill="none" stroke="black" d="M84.525,-82.376C88.335,-69.782 92.234,-56.894 95.532,-45.991"/>
<polygon fill="black" stroke="black" points="98.9426,-46.8041 98.488,-36.219 92.2425,-44.7773 98.9426,-46.8041"/>
<text text-anchor="middle" x="107" y="-56.8" font-family="Helvetica,sans-Serif" font-size="8.00">author</text>
</g>
<!-- praktomat_tasks_models_Task -->
<g id="node4" class="node"><title>praktomat_tasks_models_Task</title>
<polygon fill="palegoldenrod" stroke="palegoldenrod" points="15.5,-9.5 15.5,-26.5 48.5,-26.5 48.5,-9.5 15.5,-9.5"/>
<polygon fill="#698b22" stroke="#698b22" points="16,-9 16,-26 49,-26 49,-9 16,-9"/>
<text text-anchor="start" x="20.5" y="-15.6333" font-family="Helvetica Bold" font-size="8.00" fill="white">Task</text>
</g>
<!-- praktomat_solutions_models_Solution&#45;&gt;praktomat_tasks_models_Task -->
<g id="edge4" class="edge"><title>praktomat_solutions_models_Solution&#45;&gt;praktomat_tasks_models_Task</title>
<path fill="none" stroke="black" d="M51.475,-82.376C47.665,-69.782 43.766,-56.894 40.468,-45.991"/>
<polygon fill="black" stroke="black" points="43.7575,-44.7773 37.512,-36.219 37.0574,-46.8041 43.7575,-44.7773"/>
<text text-anchor="middle" x="55.5" y="-56.8" font-family="Helvetica,sans-Serif" font-size="8.00">task</text>
</g>
<!-- praktomat_solutions_models_SolutionFile -->
<g id="node6" class="node"><title>praktomat_solutions_models_SolutionFile</title>
<polygon fill="palegoldenrod" stroke="palegoldenrod" points="14.5,-242.5 14.5,-295.5 121.5,-295.5 121.5,-242.5 14.5,-242.5"/>
<polygon fill="#698b22" stroke="#698b22" points="15,-278 15,-295 122,-295 122,-278 15,-278"/>
<text text-anchor="start" x="38.5" y="-284.633" font-family="Helvetica Bold" font-size="8.00" fill="white">SolutionFile</text>
<text text-anchor="start" x="17" y="-270.133" font-family="Helvetica Bold" font-size="8.00" fill="#7b7b7b">id</text>
<text text-anchor="start" x="64" y="-270.133" font-family="Helvetica Bold" font-size="8.00" fill="#7b7b7b">AutoField</text>
<text text-anchor="start" x="17" y="-258.133" font-family="Helvetica Bold" font-size="8.00">solution</text>
<text text-anchor="start" x="64" y="-258.133" font-family="Helvetica Bold" font-size="8.00">ForeignKey</text>
<text text-anchor="start" x="17" y="-246.133" font-family="Helvetica Bold" font-size="8.00">file</text>
<text text-anchor="start" x="64" y="-246.133" font-family="Helvetica Bold" font-size="8.00">FileField</text>
</g>
<!-- praktomat_solutions_models_SolutionFile&#45;&gt;praktomat_solutions_models_Solution -->
<g id="edge6" class="edge"><title>praktomat_solutions_models_SolutionFile&#45;&gt;praktomat_solutions_models_Solution</title>
<path fill="none" stroke="black" d="M68,-238.38C68,-227.39 68,-214.53 68,-201.73"/>
<polygon fill="black" stroke="black" points="71.5001,-201.52 68,-191.52 64.5001,-201.52 71.5001,-201.52"/>
<text text-anchor="middle" x="86.5" y="-212.8" font-family="Helvetica,sans-Serif" font-size="8.00">solution</text>
</g>
</g>
</svg>
