<?xml version="1.0" encoding="UTF-8" standalone="no"?>
<!DOCTYPE svg PUBLIC "-//W3C//DTD SVG 1.1//EN"
 "http://www.w3.org/Graphics/SVG/1.1/DTD/svg11.dtd">
<!-- Generated by graphviz version 2.27.20110109.0545 (20110109.0545)
 -->
<!-- Title: name Pages: 1 -->
<svg width="239pt" height="320pt"
 viewBox="0.00 0.00 239.00 320.00" xmlns="http://www.w3.org/2000/svg" xmlns:xlink="http://www.w3.org/1999/xlink">
<g id="graph1" class="graph" transform="scale(1 1) rotate(0) translate(4 316)">
<title>name</title>
<polygon fill="white" stroke="white" points="-4,5 -4,-316 236,-316 236,5 -4,5"/>
<!-- praktomat_tasks_models_Task -->
<g id="node1" class="node"><title>praktomat_tasks_models_Task</title>
<polygon fill="palegoldenrod" stroke="palegoldenrod" points="8,-86.5 8,-199.5 176,-199.5 176,-86.5 8,-86.5"/>
<polygon fill="#698b22" stroke="#698b22" points="8,-182 8,-199 176,-199 176,-182 8,-182"/>
<text text-anchor="start" x="82.5" y="-188.633" font-family="Helvetica Bold" font-size="8.00" fill="white">Task</text>
<text text-anchor="start" x="10" y="-174.133" font-family="Helvetica Bold" font-size="8.00" fill="#7b7b7b">id</text>
<text text-anchor="start" x="112" y="-174.133" font-family="Helvetica Bold" font-size="8.00" fill="#7b7b7b">AutoField</text>
<text text-anchor="start" x="10" y="-162.133" font-family="Helvetica Bold" font-size="8.00">title</text>
<text text-anchor="start" x="112" y="-162.133" font-family="Helvetica Bold" font-size="8.00">CharField</text>
<text text-anchor="start" x="10" y="-150.133" font-family="Helvetica Bold" font-size="8.00">description</text>
<text text-anchor="start" x="112" y="-150.133" font-family="Helvetica Bold" font-size="8.00">TextField</text>
<text text-anchor="start" x="10" y="-138.133" font-family="Helvetica Bold" font-size="8.00">publication_date</text>
<text text-anchor="start" x="112" y="-138.133" font-family="Helvetica Bold" font-size="8.00">DateTimeField</text>
<text text-anchor="start" x="10" y="-126.133" font-family="Helvetica Bold" font-size="8.00">submission_date</text>
<text text-anchor="start" x="112" y="-126.133" font-family="Helvetica Bold" font-size="8.00">DateTimeField</text>
<text text-anchor="start" x="10" y="-114.133" font-family="Helvetica Bold" font-size="8.00" fill="#7b7b7b">model_solution</text>
<text text-anchor="start" x="112" y="-114.133" font-family="Helvetica Bold" font-size="8.00" fill="#7b7b7b">OneToOneField</text>
<text text-anchor="start" x="10" y="-102.133" font-family="Helvetica Bold" font-size="8.00" fill="#7b7b7b">all_checker_finished</text>
<text text-anchor="start" x="112" y="-102.133" font-family="Helvetica Bold" font-size="8.00" fill="#7b7b7b">BooleanField</text>
<text text-anchor="start" x="10" y="-90.1333" font-family="Helvetica Bold" font-size="8.00">final_grade_rating_scale</text>
<text text-anchor="start" x="112" y="-90.1333" font-family="Helvetica Bold" font-size="8.00">ForeignKey</text>
</g>
<!-- praktomat_attestation_models_RatingScale -->
<g id="node2" class="node"><title>praktomat_attestation_models_RatingScale</title>
<polygon fill="palegoldenrod" stroke="palegoldenrod" points="104.5,-9.5 104.5,-26.5 173.5,-26.5 173.5,-9.5 104.5,-9.5"/>
<polygon fill="#698b22" stroke="#698b22" points="105,-9 105,-26 174,-26 174,-9 105,-9"/>
<text text-anchor="start" x="110" y="-15.6333" font-family="Helvetica Bold" font-size="8.00" fill="white">RatingScale</text>
</g>
<!-- praktomat_tasks_models_Task&#45;&gt;praktomat_attestation_models_RatingScale -->
<g id="edge2" class="edge"><title>praktomat_tasks_models_Task&#45;&gt;praktomat_attestation_models_RatingScale</title>
<path fill="none" stroke="black" d="M114.81,-82.331C119.68,-69.377 124.59,-56.318 128.7,-45.383"/>
<polygon fill="black" stroke="black" points="131.984,-46.593 132.23,-36.001 125.433,-44.1279 131.984,-46.593"/>
<text text-anchor="middle" x="178" y="-56.8" font-family="Helvetica,sans-Serif" font-size="8.00">final_grade_rating_scale</text>
</g>
<!-- praktomat_solutions_models_Solution -->
<g id="node4" class="node"><title>praktomat_solutions_models_Solution</title>
<polygon fill="palegoldenrod" stroke="palegoldenrod" points="18.5,-9.5 18.5,-26.5 71.5,-26.5 71.5,-9.5 18.5,-9.5"/>
<polygon fill="#698b22" stroke="#698b22" points="19,-9 19,-26 72,-26 72,-9 19,-9"/>
<text text-anchor="start" x="24" y="-15.6333" font-family="Helvetica Bold" font-size="8.00" fill="white">Solution</text>
</g>
<!-- praktomat_tasks_models_Task&#45;&gt;praktomat_solutions_models_Solution -->
<g id="edge4" class="edge"><title>praktomat_tasks_models_Task&#45;&gt;praktomat_solutions_models_Solution</title>
<path fill="none" stroke="black" d="M56.849,-82.31C54.223,-76.251 51.873,-70.087 50,-64 47.26,-55.094 45.976,-44.814 45.392,-36.234"/>
<text text-anchor="middle" x="83.5" y="-56.8" font-family="Helvetica,sans-Serif" font-size="8.00">model_solution</text>
</g>
<!-- praktomat_tasks_models_MediaFile -->
<g id="node6" class="node"><title>praktomat_tasks_models_MediaFile</title>
<polygon fill="palegoldenrod" stroke="palegoldenrod" points="34,-254.5 34,-307.5 150,-307.5 150,-254.5 34,-254.5"/>
<polygon fill="#698b22" stroke="#698b22" points="34,-290 34,-307 150,-307 150,-290 34,-290"/>
<text text-anchor="start" x="69" y="-296.633" font-family="Helvetica Bold" font-size="8.00" fill="white">MediaFile</text>
<text text-anchor="start" x="36" y="-282.133" font-family="Helvetica Bold" font-size="8.00" fill="#7b7b7b">id</text>
<text text-anchor="start" x="92" y="-282.133" font-family="Helvetica Bold" font-size="8.00" fill="#7b7b7b">AutoField</text>
<text text-anchor="start" x="36" y="-270.133" font-family="Helvetica Bold" font-size="8.00">task</text>
<text text-anchor="start" x="92" y="-270.133" font-family="Helvetica Bold" font-size="8.00">ForeignKey</text>
<text text-anchor="start" x="36" y="-258.133" font-family="Helvetica Bold" font-size="8.00">media_file</text>
<text text-anchor="start" x="92" y="-258.133" font-family="Helvetica Bold" font-size="8.00">FileField</text>
</g>
<!-- praktomat_tasks_models_MediaFile&#45;&gt;praktomat_tasks_models_Task -->
<g id="edge6" class="edge"><title>praktomat_tasks_models_MediaFile&#45;&gt;praktomat_tasks_models_Task</title>
<path fill="none" stroke="black" d="M92,-250.37C92,-239.47 92,-226.69 92,-213.83"/>
<polygon fill="black" stroke="black" points="95.5001,-213.54 92,-203.54 88.5001,-213.54 95.5001,-213.54"/>
<text text-anchor="middle" x="101.5" y="-224.8" font-family="Helvetica,sans-Serif" font-size="8.00">task</text>
</g>
</g>
</svg>
