<?xml version="1.0" encoding="UTF-8" standalone="no"?>
<!DOCTYPE svg PUBLIC "-//W3C//DTD SVG 1.1//EN"
 "http://www.w3.org/Graphics/SVG/1.1/DTD/svg11.dtd">
<!-- Generated by graphviz version 2.27.20110109.0545 (20110109.0545)
 -->
<!-- Title: name Pages: 1 -->
<svg width="229pt" height="320pt"
 viewBox="0.00 0.00 229.00 320.00" xmlns="http://www.w3.org/2000/svg" xmlns:xlink="http://www.w3.org/1999/xlink">
<g id="graph1" class="graph" transform="scale(1 1) rotate(0) translate(4 316)">
<title>name</title>
<polygon fill="white" stroke="white" points="-4,5 -4,-316 226,-316 226,5 -4,5"/>
<!-- praktomat_tasks_models_Task -->
<g id="node1" class="node"><title>praktomat_tasks_models_Task</title>
<polygon fill="palegoldenrod" stroke="palegoldenrod" points="22,-86.5 22,-199.5 190,-199.5 190,-86.5 22,-86.5"/>
<polygon fill="#698b22" stroke="#698b22" points="22,-182 22,-199 190,-199 190,-182 22,-182"/>
<text text-anchor="start" x="96.5" y="-188.633" font-family="Helvetica Bold" font-size="8.00" fill="white">Task</text>
<text text-anchor="start" x="24" y="-174.133" font-family="Helvetica Bold" font-size="8.00" fill="#7b7b7b">id</text>
<text text-anchor="start" x="126" y="-174.133" font-family="Helvetica Bold" font-size="8.00" fill="#7b7b7b">AutoField</text>
<text text-anchor="start" x="24" y="-162.133" font-family="Helvetica Bold" font-size="8.00">title</text>
<text text-anchor="start" x="126" y="-162.133" font-family="Helvetica Bold" font-size="8.00">CharField</text>
<text text-anchor="start" x="24" y="-150.133" font-family="Helvetica Bold" font-size="8.00">description</text>
<text text-anchor="start" x="126" y="-150.133" font-family="Helvetica Bold" font-size="8.00">TextField</text>
<text text-anchor="start" x="24" y="-138.133" font-family="Helvetica Bold" font-size="8.00">publication_date</text>
<text text-anchor="start" x="126" y="-138.133" font-family="Helvetica Bold" font-size="8.00">DateTimeField</text>
<text text-anchor="start" x="24" y="-126.133" font-family="Helvetica Bold" font-size="8.00">submission_date</text>
<text text-anchor="start" x="126" y="-126.133" font-family="Helvetica Bold" font-size="8.00">DateTimeField</text>
<text text-anchor="start" x="24" y="-114.133" font-family="Helvetica Bold" font-size="8.00" fill="#7b7b7b">model_solution</text>
<text text-anchor="start" x="126" y="-114.133" font-family="Helvetica Bold" font-size="8.00" fill="#7b7b7b">OneToOneField</text>
<text text-anchor="start" x="24" y="-102.133" font-family="Helvetica Bold" font-size="8.00" fill="#7b7b7b">all_checker_finished</text>
<text text-anchor="start" x="126" y="-102.133" font-family="Helvetica Bold" font-size="8.00" fill="#7b7b7b">BooleanField</text>
<text text-anchor="start" x="24" y="-90.1333" font-family="Helvetica Bold" font-size="8.00">final_grade_rating_scale</text>
<text text-anchor="start" x="126" y="-90.1333" font-family="Helvetica Bold" font-size="8.00">ForeignKey</text>
</g>
<!-- praktomat_attestation_models_RatingScale -->
<g id="node2" class="node"><title>praktomat_attestation_models_RatingScale</title>
<polygon fill="palegoldenrod" stroke="palegoldenrod" points="7.5,-9.5 7.5,-26.5 76.5,-26.5 76.5,-9.5 7.5,-9.5"/>
<polygon fill="#698b22" stroke="#698b22" points="8,-9 8,-26 77,-26 77,-9 8,-9"/>
<text text-anchor="start" x="13" y="-15.6333" font-family="Helvetica Bold" font-size="8.00" fill="white">RatingScale</text>
</g>
<!-- praktomat_tasks_models_Task&#45;&gt;praktomat_attestation_models_RatingScale -->
<g id="edge2" class="edge"><title>praktomat_tasks_models_Task&#45;&gt;praktomat_attestation_models_RatingScale</title>
<path fill="none" stroke="black" d="M51.69,-82.341C48.254,-76.415 45.27,-70.268 43,-64 41.028,-58.555 40.093,-52.504 39.765,-46.628"/>
<polygon fill="black" stroke="black" points="43.2645,-46.399 39.739,-36.408 36.2645,-46.4169 43.2645,-46.399"/>
<text text-anchor="middle" x="96" y="-56.8" font-family="Helvetica,sans-Serif" font-size="8.00">final_grade_rating_scale</text>
</g>
<!-- praktomat_solutions_models_Solution -->
<g id="node4" class="node"><title>praktomat_solutions_models_Solution</title>
<polygon fill="palegoldenrod" stroke="palegoldenrod" points="144.5,-9.5 144.5,-26.5 197.5,-26.5 197.5,-9.5 144.5,-9.5"/>
<polygon fill="#698b22" stroke="#698b22" points="145,-9 145,-26 198,-26 198,-9 145,-9"/>
<text text-anchor="start" x="150" y="-15.6333" font-family="Helvetica Bold" font-size="8.00" fill="white">Solution</text>
</g>
<!-- praktomat_tasks_models_Task&#45;&gt;praktomat_solutions_models_Solution -->
<g id="edge4" class="edge"><title>praktomat_tasks_models_Task&#45;&gt;praktomat_solutions_models_Solution</title>
<path fill="none" stroke="black" d="M139.42,-82.356C142.7,-76.179 145.95,-69.98 149,-64 153.67,-54.855 158.63,-44.553 162.65,-36.02"/>
<text text-anchor="middle" x="187.5" y="-56.8" font-family="Helvetica,sans-Serif" font-size="8.00">model_solution</text>
</g>
<!-- praktomat_tasks_models_MediaFile -->
<g id="node6" class="node"><title>praktomat_tasks_models_MediaFile</title>
<polygon fill="palegoldenrod" stroke="palegoldenrod" points="48,-254.5 48,-307.5 164,-307.5 164,-254.5 48,-254.5"/>
<polygon fill="#698b22" stroke="#698b22" points="48,-290 48,-307 164,-307 164,-290 48,-290"/>
<text text-anchor="start" x="83" y="-296.633" font-family="Helvetica Bold" font-size="8.00" fill="white">MediaFile</text>
<text text-anchor="start" x="50" y="-282.133" font-family="Helvetica Bold" font-size="8.00" fill="#7b7b7b">id</text>
<text text-anchor="start" x="106" y="-282.133" font-family="Helvetica Bold" font-size="8.00" fill="#7b7b7b">AutoField</text>
<text text-anchor="start" x="50" y="-270.133" font-family="Helvetica Bold" font-size="8.00">task</text>
<text text-anchor="start" x="106" y="-270.133" font-family="Helvetica Bold" font-size="8.00">ForeignKey</text>
<text text-anchor="start" x="50" y="-258.133" font-family="Helvetica Bold" font-size="8.00">media_file</text>
<text text-anchor="start" x="106" y="-258.133" font-family="Helvetica Bold" font-size="8.00">FileField</text>
</g>
<!-- praktomat_tasks_models_MediaFile&#45;&gt;praktomat_tasks_models_Task -->
<g id="edge6" class="edge"><title>praktomat_tasks_models_MediaFile&#45;&gt;praktomat_tasks_models_Task</title>
<path fill="none" stroke="black" d="M106,-250.37C106,-239.47 106,-226.69 106,-213.83"/>
<polygon fill="black" stroke="black" points="109.5,-213.54 106,-203.54 102.5,-213.54 109.5,-213.54"/>
<text text-anchor="middle" x="115.5" y="-224.8" font-family="Helvetica,sans-Serif" font-size="8.00">task</text>
</g>
</g>
</svg>
